<svg xmlns="http://www.w3.org/2000/svg" xmlns:xlink="http://www.w3.org/1999/xlink" width="100" zoomAndPan="magnify" viewBox="0 0 75 37.5" height="50" preserveAspectRatio="xMidYMid meet" version="1.0"><defs><g/></defs><g fill="#38b6ff" fill-opacity="1"><g transform="translate(12.30799, 22.716458)"><g><path d="M 8.445312 -11.945312 C 8.734375 -12.019531 8.976562 -12.160156 9.210938 -12.335938 C 9.429688 -12.511719 9.605469 -12.738281 9.757812 -13.015625 C 10.023438 -13.546875 10.015625 -14.210938 9.773438 -14.996094 C 9.503906 -14.777344 9.234375 -14.691406 9.011719 -14.699219 C 8.769531 -14.707031 8.578125 -14.773438 8.425781 -14.941406 C 8.261719 -15.085938 8.144531 -15.296875 8.074219 -15.546875 C 8.007812 -15.796875 7.992188 -16.054688 8.03125 -16.355469 C 8.128906 -16.921875 8.351562 -17.355469 8.722656 -17.644531 C 9.09375 -17.929688 9.515625 -18.128906 9.984375 -18.226562 C 10.453125 -18.320312 10.945312 -18.382812 11.425781 -18.382812 C 11.890625 -18.367188 12.359375 -18.332031 12.808594 -18.277344 C 13.261719 -18.222656 13.695312 -18.148438 14.113281 -18.050781 C 14.304688 -18 14.496094 -17.949219 14.671875 -17.898438 C 14.84375 -17.84375 15.015625 -17.808594 15.1875 -17.757812 C 15.34375 -17.703125 15.519531 -17.632812 15.691406 -17.578125 C 15.847656 -17.503906 16.042969 -17.4375 16.253906 -17.351562 C 16.453125 -17.265625 16.664062 -17.179688 16.878906 -17.097656 C 17.09375 -17.011719 17.304688 -16.945312 17.535156 -16.882812 C 17.980469 -16.730469 18.4375 -16.621094 18.910156 -16.550781 C 19.363281 -16.476562 19.804688 -16.476562 20.203125 -16.5625 C 20.53125 -16.601562 20.832031 -16.714844 21.070312 -16.890625 C 21.308594 -17.050781 21.507812 -17.242188 21.664062 -17.484375 C 21.800781 -17.703125 21.902344 -17.9375 21.945312 -18.203125 C 21.988281 -18.449219 21.992188 -18.707031 21.960938 -18.964844 C 21.914062 -19.179688 21.835938 -19.390625 21.714844 -19.601562 C 21.597656 -19.808594 21.441406 -20.011719 21.253906 -20.191406 C 21.050781 -20.351562 20.828125 -20.507812 20.550781 -20.640625 C 20.277344 -20.753906 19.988281 -20.847656 19.648438 -20.898438 C 19.703125 -20.460938 19.707031 -20.128906 19.628906 -19.859375 C 19.550781 -19.59375 19.429688 -19.375 19.265625 -19.222656 C 19.097656 -19.054688 18.890625 -18.9375 18.640625 -18.867188 C 18.390625 -18.800781 18.136719 -18.75 17.878906 -18.753906 C 17.511719 -18.730469 17.160156 -18.722656 16.824219 -18.753906 C 16.46875 -18.765625 16.132812 -18.800781 15.8125 -18.851562 L 13.871094 -19.113281 C 13.234375 -19.183594 12.582031 -19.210938 11.9375 -19.207031 C 11.289062 -19.199219 10.597656 -19.113281 9.84375 -18.910156 C 9.34375 -18.773438 8.847656 -18.585938 8.355469 -18.355469 C 7.867188 -18.128906 7.4375 -17.875 7.046875 -17.585938 C 6.640625 -17.273438 6.296875 -16.917969 6.007812 -16.550781 C 5.722656 -16.164062 5.550781 -15.753906 5.460938 -15.296875 C 5.371094 -14.824219 5.375 -14.34375 5.488281 -13.875 C 5.582031 -13.40625 5.777344 -13.003906 6.042969 -12.667969 C 6.308594 -12.3125 6.636719 -12.054688 7.042969 -11.902344 C 7.433594 -11.746094 7.914062 -11.769531 8.445312 -11.945312 Z M 3.492188 -0.488281 C 4.082031 -0.523438 4.628906 -0.738281 5.136719 -1.117188 C 5.644531 -1.492188 6.140625 -1.980469 6.621094 -2.578125 C 7.105469 -3.15625 7.542969 -3.820312 7.96875 -4.574219 C 8.394531 -5.3125 8.816406 -6.085938 9.234375 -6.898438 C 9.460938 -7.332031 9.710938 -7.84375 9.996094 -8.398438 C 10.277344 -8.949219 10.578125 -9.523438 10.910156 -10.140625 L 11.390625 -11.03125 C 11.769531 -11.707031 12.167969 -12.386719 12.566406 -13.066406 C 12.960938 -13.742188 13.351562 -14.347656 13.746094 -14.894531 C 14.125 -15.421875 14.476562 -15.855469 14.84375 -16.195312 C 15.191406 -16.535156 15.5 -16.742188 15.785156 -16.8125 C 15.433594 -17.101562 15.058594 -17.167969 14.667969 -17.007812 C 14.261719 -16.847656 13.820312 -16.535156 13.320312 -16.082031 C 13.171875 -15.933594 12.980469 -15.6875 12.726562 -15.34375 C 12.476562 -14.980469 12.175781 -14.570312 11.863281 -14.089844 C 11.535156 -13.605469 11.175781 -13.078125 10.800781 -12.515625 C 10.425781 -11.949219 10.03125 -11.382812 9.640625 -10.816406 L 8.996094 -9.902344 C 8.707031 -9.535156 8.4375 -9.167969 8.164062 -8.835938 C 7.890625 -8.507812 7.632812 -8.199219 7.386719 -7.945312 C 7.042969 -7.570312 6.714844 -7.234375 6.382812 -6.933594 C 6.050781 -6.613281 5.710938 -6.351562 5.386719 -6.125 C 5.046875 -5.878906 4.738281 -5.695312 4.441406 -5.566406 C 4.140625 -5.433594 3.871094 -5.363281 3.613281 -5.371094 C 3.355469 -5.355469 3.105469 -5.417969 2.886719 -5.539062 C 2.667969 -5.660156 2.496094 -5.878906 2.363281 -6.195312 C 2.214844 -6.492188 2.128906 -6.890625 2.085938 -7.382812 C 2.046875 -7.859375 2.082031 -8.476562 2.195312 -9.210938 C 1.703125 -8.984375 1.277344 -8.691406 0.953125 -8.316406 C 0.609375 -7.941406 0.328125 -7.535156 0.105469 -7.082031 C -0.132812 -6.609375 -0.292969 -6.128906 -0.378906 -5.617188 C -0.480469 -5.085938 -0.511719 -4.582031 -0.488281 -4.105469 C -0.460938 -3.589844 -0.363281 -3.082031 -0.195312 -2.621094 C -0.0273438 -2.164062 0.207031 -1.765625 0.542969 -1.4375 C 0.863281 -1.085938 1.269531 -0.824219 1.75 -0.660156 C 2.234375 -0.480469 2.816406 -0.421875 3.492188 -0.488281 Z M 3.492188 -0.488281 "/></g></g></g><g fill="#38b6ff" fill-opacity="1"><g transform="translate(24.083672, 21.262062)"><g><path d="M 5.796875 -0.882812 L 5.730469 -0.820312 C 6.238281 -0.882812 6.730469 -1.089844 7.222656 -1.464844 C 7.699219 -1.820312 8.160156 -2.265625 8.578125 -2.78125 C 8.980469 -3.273438 9.339844 -3.820312 9.675781 -4.378906 C 10.015625 -4.9375 10.28125 -5.472656 10.484375 -5.941406 C 10.453125 -5.898438 10.417969 -5.878906 10.367188 -5.832031 C 10.316406 -5.789062 10.269531 -5.730469 10.203125 -5.664062 C 10.054688 -5.5 9.890625 -5.332031 9.710938 -5.160156 C 9.53125 -4.972656 9.332031 -4.78125 9.113281 -4.585938 C 8.652344 -4.140625 8.265625 -3.816406 7.917969 -3.625 C 7.746094 -3.511719 7.605469 -3.476562 7.507812 -3.5 C 7.414062 -3.527344 7.382812 -3.632812 7.414062 -3.820312 C 7.425781 -4.007812 7.554688 -4.320312 7.765625 -4.714844 L 11.066406 -11.101562 L 8.496094 -10.785156 L 7.535156 -8.964844 C 7.492188 -9.328125 7.402344 -9.613281 7.242188 -9.851562 C 7.085938 -10.074219 6.898438 -10.238281 6.660156 -10.355469 C 6.410156 -10.453125 6.125 -10.492188 5.832031 -10.492188 C 5.535156 -10.476562 5.210938 -10.398438 4.894531 -10.285156 C 4.648438 -10.179688 4.367188 -10.035156 4.082031 -9.816406 C 3.792969 -9.59375 3.507812 -9.355469 3.210938 -9.058594 C 2.914062 -8.761719 2.605469 -8.429688 2.300781 -8.058594 C 1.992188 -7.6875 1.707031 -7.320312 1.421875 -6.914062 C 1.074219 -6.425781 0.765625 -5.945312 0.492188 -5.449219 C 0.207031 -4.929688 -0.03125 -4.4375 -0.230469 -3.953125 C -0.371094 -3.601562 -0.488281 -3.199219 -0.542969 -2.746094 C -0.597656 -2.296875 -0.601562 -1.886719 -0.519531 -1.507812 C -0.453125 -1.109375 -0.300781 -0.796875 -0.0859375 -0.542969 C 0.128906 -0.292969 0.457031 -0.1875 0.914062 -0.242188 C 1.535156 -0.320312 2.175781 -0.527344 2.792969 -0.902344 C 3.089844 -1.066406 3.359375 -1.265625 3.613281 -1.484375 C 3.863281 -1.699219 4.074219 -1.945312 4.226562 -2.207031 C 4.242188 -1.78125 4.394531 -1.449219 4.683594 -1.1875 C 4.957031 -0.925781 5.320312 -0.824219 5.796875 -0.882812 Z M 2.464844 -2.820312 C 2.289062 -2.894531 2.164062 -3.023438 2.082031 -3.238281 C 2 -3.449219 2 -3.726562 2.066406 -4.085938 C 2.117188 -4.425781 2.253906 -4.832031 2.488281 -5.34375 C 2.722656 -5.832031 3.058594 -6.410156 3.496094 -7.078125 C 3.679688 -7.359375 3.867188 -7.640625 4.09375 -7.929688 C 4.296875 -8.210938 4.527344 -8.460938 4.753906 -8.714844 C 4.964844 -8.941406 5.203125 -9.136719 5.460938 -9.28125 C 5.703125 -9.421875 5.972656 -9.492188 6.265625 -9.527344 C 6.429688 -9.53125 6.566406 -9.492188 6.667969 -9.410156 C 6.753906 -9.3125 6.824219 -9.191406 6.878906 -9.03125 C 6.917969 -8.871094 6.941406 -8.6875 6.933594 -8.464844 C 6.921875 -8.242188 6.914062 -8.015625 6.871094 -7.769531 L 6.886719 -7.773438 L 5.316406 -4.914062 C 5.199219 -4.675781 5.027344 -4.414062 4.839844 -4.132812 C 4.632812 -3.847656 4.40625 -3.578125 4.160156 -3.34375 C 3.894531 -3.089844 3.621094 -2.910156 3.335938 -2.800781 C 3.039062 -2.671875 2.742188 -2.671875 2.464844 -2.820312 Z M 2.464844 -2.820312 "/></g></g></g><g fill="#38b6ff" fill-opacity="1"><g transform="translate(33.507806, 20.098101)"><g><path d="M 3.730469 -0.832031 C 4.261719 -1.15625 4.671875 -1.578125 4.976562 -2.113281 C 5.265625 -2.628906 5.476562 -3.175781 5.625 -3.75 C 5.757812 -4.320312 5.875 -4.890625 5.949219 -5.472656 C 6.027344 -6.054688 6.085938 -6.636719 6.121094 -7.234375 C 6.125 -7.511719 6.144531 -7.792969 6.167969 -8.054688 C 6.171875 -8.3125 6.195312 -8.578125 6.21875 -8.839844 L 6.257812 -8.824219 C 6.410156 -8.9375 6.609375 -9.144531 6.867188 -9.4375 C 7.128906 -9.726562 7.363281 -10.070312 7.578125 -10.429688 C 7.714844 -10.671875 7.832031 -10.90625 7.933594 -11.140625 C 8.035156 -11.375 8.101562 -11.589844 8.113281 -11.792969 C 8.125 -11.980469 8.085938 -12.160156 7.996094 -12.296875 C 7.902344 -12.433594 7.742188 -12.542969 7.511719 -12.609375 C 7.324219 -12.640625 7.125 -12.597656 6.921875 -12.460938 C 6.714844 -12.324219 6.53125 -12.152344 6.339844 -11.90625 C 6.128906 -11.660156 5.941406 -11.378906 5.761719 -11.058594 C 5.578125 -10.738281 5.410156 -10.441406 5.28125 -10.128906 C 5.136719 -9.816406 5.007812 -9.503906 4.914062 -9.214844 C 4.820312 -8.925781 4.773438 -8.695312 4.761719 -8.511719 C 4.523438 -8.332031 4.261719 -8.207031 3.996094 -8.121094 C 3.710938 -8.011719 3.441406 -7.941406 3.171875 -7.886719 C 2.902344 -7.835938 2.644531 -7.804688 2.386719 -7.808594 C 2.125 -7.816406 1.882812 -7.820312 1.660156 -7.847656 C 1.757812 -7.640625 1.921875 -7.511719 2.136719 -7.425781 C 2.351562 -7.34375 2.59375 -7.316406 2.886719 -7.335938 C 3.167969 -7.332031 3.457031 -7.386719 3.773438 -7.5 C 4.078125 -7.59375 4.394531 -7.726562 4.726562 -7.875 C 4.679688 -7.054688 4.601562 -6.363281 4.480469 -5.828125 C 4.363281 -5.296875 4.214844 -4.851562 4.03125 -4.515625 C 3.824219 -4.101562 3.566406 -3.808594 3.253906 -3.621094 C 2.945312 -3.4375 2.65625 -3.363281 2.394531 -3.386719 C 2.117188 -3.390625 1.902344 -3.472656 1.75 -3.660156 C 1.601562 -3.824219 1.585938 -4.082031 1.695312 -4.410156 C 1.773438 -4.679688 1.933594 -4.882812 2.136719 -5.039062 C 2.339844 -5.195312 2.542969 -5.199219 2.726562 -5.039062 C 2.820312 -5.179688 2.875 -5.351562 2.847656 -5.554688 C 2.828125 -5.71875 2.753906 -5.875 2.644531 -6.027344 C 2.515625 -6.160156 2.355469 -6.25 2.160156 -6.339844 C 1.964844 -6.40625 1.742188 -6.417969 1.523438 -6.390625 C 1.035156 -6.308594 0.636719 -6.09375 0.308594 -5.738281 C -0.015625 -5.382812 -0.261719 -4.964844 -0.425781 -4.5 C -0.589844 -4.035156 -0.640625 -3.546875 -0.617188 -3.035156 C -0.605469 -2.515625 -0.492188 -2.03125 -0.292969 -1.613281 C -0.0898438 -1.191406 0.191406 -0.839844 0.59375 -0.589844 C 0.976562 -0.324219 1.453125 -0.214844 2.039062 -0.269531 C 2.609375 -0.304688 3.175781 -0.503906 3.730469 -0.832031 Z M 6.28125 -9.53125 C 6.320312 -9.8125 6.359375 -10.097656 6.4375 -10.363281 C 6.515625 -10.632812 6.613281 -10.90625 6.746094 -11.179688 L 6.75 -11.144531 C 6.804688 -11.28125 6.882812 -11.417969 6.960938 -11.539062 C 7.019531 -11.65625 7.097656 -11.761719 7.175781 -11.882812 C 7.304688 -12.046875 7.421875 -12.132812 7.515625 -12.144531 C 7.589844 -12.117188 7.617188 -12.046875 7.632812 -11.9375 C 7.625 -11.863281 7.613281 -11.804688 7.621094 -11.730469 C 7.613281 -11.65625 7.601562 -11.582031 7.59375 -11.507812 C 7.539062 -11.332031 7.503906 -11.179688 7.449219 -11.027344 C 7.394531 -10.871094 7.351562 -10.753906 7.324219 -10.695312 C 7.097656 -10.28125 6.757812 -9.886719 6.28125 -9.53125 Z M 6.28125 -9.53125 "/></g></g></g><g fill="#38b6ff" fill-opacity="1"><g transform="translate(39.322588, 19.379927)"><g><path d="M -0.152344 -4.089844 L -2.40625 0.148438 L 0.347656 -0.191406 L 2.339844 -3.972656 C 2.550781 -2.886719 2.847656 -2.109375 3.222656 -1.621094 C 3.582031 -1.128906 4.003906 -0.847656 4.457031 -0.773438 C 4.894531 -0.679688 5.363281 -0.773438 5.847656 -1.054688 C 6.332031 -1.335938 6.820312 -1.710938 7.300781 -2.195312 C 7.761719 -2.660156 8.195312 -3.195312 8.601562 -3.800781 C 9.007812 -4.40625 9.359375 -5.007812 9.636719 -5.59375 C 9.488281 -5.449219 9.359375 -5.300781 9.226562 -5.175781 C 9.097656 -5.027344 8.964844 -4.882812 8.855469 -4.738281 C 8.628906 -4.453125 8.386719 -4.183594 8.117188 -3.964844 C 7.851562 -3.726562 7.554688 -3.5625 7.234375 -3.484375 C 6.910156 -3.390625 6.5 -3.414062 6.039062 -3.558594 C 5.675781 -3.664062 5.339844 -3.824219 5.03125 -4.0625 C 4.726562 -4.285156 4.472656 -4.550781 4.25 -4.855469 C 4.414062 -4.875 4.628906 -4.941406 4.875 -5.042969 C 5.347656 -5.25 5.90625 -5.542969 6.519531 -5.949219 C 6.8125 -6.136719 7.167969 -6.402344 7.609375 -6.734375 C 8.03125 -7.0625 8.394531 -7.421875 8.714844 -7.8125 C 9.019531 -8.183594 9.21875 -8.523438 9.328125 -8.832031 C 9.441406 -9.144531 9.445312 -9.402344 9.363281 -9.617188 C 9.261719 -9.824219 9.113281 -9.972656 8.878906 -10.074219 C 8.644531 -10.175781 8.363281 -10.214844 8.015625 -10.171875 C 7.671875 -10.128906 7.28125 -9.988281 6.828125 -9.765625 C 6.234375 -9.46875 5.6875 -9.085938 5.191406 -8.617188 C 4.695312 -8.148438 4.25 -7.6875 3.882812 -7.234375 L 3.867188 -7.214844 L 5.402344 -10.070312 C 5.519531 -10.175781 5.652344 -10.285156 5.804688 -10.414062 C 5.953125 -10.546875 6.121094 -10.675781 6.289062 -10.828125 C 6.4375 -10.957031 6.605469 -11.105469 6.773438 -11.257812 C 6.9375 -11.40625 7.125 -11.558594 7.304688 -11.730469 C 7.65625 -12.050781 8.019531 -12.394531 8.382812 -12.753906 C 8.746094 -13.113281 9.070312 -13.484375 9.390625 -13.894531 C 9.695312 -14.285156 9.960938 -14.667969 10.207031 -15.070312 C 10.4375 -15.46875 10.59375 -15.839844 10.695312 -16.203125 C 10.785156 -16.546875 10.796875 -16.882812 10.742188 -17.171875 C 10.671875 -17.457031 10.507812 -17.714844 10.222656 -17.941406 C 10.023438 -18.0625 9.789062 -18.164062 9.523438 -18.207031 C 9.257812 -18.246094 8.964844 -18.230469 8.660156 -18.152344 C 8.339844 -18.058594 8.042969 -17.910156 7.738281 -17.6875 C 7.429688 -17.464844 7.171875 -17.175781 6.9375 -16.8125 C 6.503906 -16.128906 6.070312 -15.445312 5.671875 -14.769531 C 5.273438 -14.089844 4.863281 -13.390625 4.46875 -12.675781 C 3.664062 -11.261719 2.875 -9.832031 2.109375 -8.40625 C 1.34375 -6.957031 0.597656 -5.515625 -0.152344 -4.089844 Z M 5.707031 -11.179688 L 9.058594 -16.722656 C 9.148438 -16.882812 9.285156 -16.992188 9.425781 -17.046875 C 9.570312 -17.082031 9.679688 -17.078125 9.800781 -17.019531 C 9.882812 -16.953125 9.96875 -16.851562 10.023438 -16.710938 C 10.078125 -16.570312 10.082031 -16.386719 10.054688 -16.160156 C 10.007812 -15.933594 9.894531 -15.660156 9.746094 -15.363281 C 9.597656 -15.050781 9.363281 -14.707031 9.058594 -14.335938 C 8.800781 -14.007812 8.507812 -13.691406 8.199219 -13.359375 C 7.867188 -13.023438 7.554688 -12.707031 7.242188 -12.40625 C 6.945312 -12.113281 6.660156 -11.871094 6.390625 -11.65625 C 6.121094 -11.4375 5.882812 -11.277344 5.707031 -11.179688 Z M 2.507812 -4.417969 L 3.273438 -5.863281 L 4.0625 -6.664062 C 4.210938 -6.8125 4.359375 -6.960938 4.523438 -7.128906 C 4.691406 -7.28125 4.839844 -7.429688 5.003906 -7.597656 C 5.316406 -7.894531 5.621094 -8.136719 5.914062 -8.320312 C 6.207031 -8.503906 6.4375 -8.585938 6.589844 -8.53125 L 6.59375 -8.515625 C 6.847656 -8.414062 6.957031 -8.261719 6.90625 -8.070312 C 6.859375 -7.863281 6.703125 -7.621094 6.476562 -7.371094 C 6.230469 -7.101562 5.933594 -6.824219 5.558594 -6.535156 C 5.191406 -6.230469 4.816406 -5.960938 4.425781 -5.691406 C 4.015625 -5.402344 3.65625 -5.152344 3.316406 -4.925781 C 2.972656 -4.699219 2.699219 -4.535156 2.507812 -4.417969 Z M 2.507812 -4.417969 "/></g></g></g><g fill="#38b6ff" fill-opacity="1"><g transform="translate(47.488915, 18.371316)"><g><path d="M 3.730469 -0.832031 C 4.261719 -1.15625 4.671875 -1.578125 4.976562 -2.113281 C 5.265625 -2.628906 5.476562 -3.175781 5.625 -3.75 C 5.757812 -4.320312 5.875 -4.890625 5.949219 -5.472656 C 6.027344 -6.054688 6.085938 -6.636719 6.121094 -7.234375 C 6.125 -7.511719 6.144531 -7.792969 6.167969 -8.054688 C 6.171875 -8.3125 6.195312 -8.578125 6.21875 -8.839844 L 6.257812 -8.824219 C 6.410156 -8.9375 6.609375 -9.144531 6.867188 -9.4375 C 7.128906 -9.726562 7.363281 -10.070312 7.578125 -10.429688 C 7.714844 -10.671875 7.832031 -10.90625 7.933594 -11.140625 C 8.035156 -11.375 8.101562 -11.589844 8.113281 -11.792969 C 8.125 -11.980469 8.085938 -12.160156 7.996094 -12.296875 C 7.902344 -12.433594 7.742188 -12.542969 7.511719 -12.609375 C 7.324219 -12.640625 7.125 -12.597656 6.921875 -12.460938 C 6.714844 -12.324219 6.53125 -12.152344 6.339844 -11.90625 C 6.128906 -11.660156 5.941406 -11.378906 5.761719 -11.058594 C 5.578125 -10.738281 5.410156 -10.441406 5.28125 -10.128906 C 5.136719 -9.816406 5.007812 -9.503906 4.914062 -9.214844 C 4.820312 -8.925781 4.773438 -8.695312 4.761719 -8.511719 C 4.523438 -8.332031 4.261719 -8.207031 3.996094 -8.121094 C 3.710938 -8.011719 3.441406 -7.941406 3.171875 -7.886719 C 2.902344 -7.835938 2.644531 -7.804688 2.386719 -7.808594 C 2.125 -7.816406 1.882812 -7.820312 1.660156 -7.847656 C 1.757812 -7.640625 1.921875 -7.511719 2.136719 -7.425781 C 2.351562 -7.34375 2.59375 -7.316406 2.886719 -7.335938 C 3.167969 -7.332031 3.457031 -7.386719 3.773438 -7.5 C 4.078125 -7.59375 4.394531 -7.726562 4.726562 -7.875 C 4.679688 -7.054688 4.601562 -6.363281 4.480469 -5.828125 C 4.363281 -5.296875 4.214844 -4.851562 4.03125 -4.515625 C 3.824219 -4.101562 3.566406 -3.808594 3.253906 -3.621094 C 2.945312 -3.4375 2.65625 -3.363281 2.394531 -3.386719 C 2.117188 -3.390625 1.902344 -3.472656 1.75 -3.660156 C 1.601562 -3.824219 1.585938 -4.082031 1.695312 -4.410156 C 1.773438 -4.679688 1.933594 -4.882812 2.136719 -5.039062 C 2.339844 -5.195312 2.542969 -5.199219 2.726562 -5.039062 C 2.820312 -5.179688 2.875 -5.351562 2.847656 -5.554688 C 2.828125 -5.71875 2.753906 -5.875 2.644531 -6.027344 C 2.515625 -6.160156 2.355469 -6.25 2.160156 -6.339844 C 1.964844 -6.40625 1.742188 -6.417969 1.523438 -6.390625 C 1.035156 -6.308594 0.636719 -6.09375 0.308594 -5.738281 C -0.015625 -5.382812 -0.261719 -4.964844 -0.425781 -4.5 C -0.589844 -4.035156 -0.640625 -3.546875 -0.617188 -3.035156 C -0.605469 -2.515625 -0.492188 -2.03125 -0.292969 -1.613281 C -0.0898438 -1.191406 0.191406 -0.839844 0.59375 -0.589844 C 0.976562 -0.324219 1.453125 -0.214844 2.039062 -0.269531 C 2.609375 -0.304688 3.175781 -0.503906 3.730469 -0.832031 Z M 6.28125 -9.53125 C 6.320312 -9.8125 6.359375 -10.097656 6.4375 -10.363281 C 6.515625 -10.632812 6.613281 -10.90625 6.746094 -11.179688 L 6.75 -11.144531 C 6.804688 -11.28125 6.882812 -11.417969 6.960938 -11.539062 C 7.019531 -11.65625 7.097656 -11.761719 7.175781 -11.882812 C 7.304688 -12.046875 7.421875 -12.132812 7.515625 -12.144531 C 7.589844 -12.117188 7.617188 -12.046875 7.632812 -11.9375 C 7.625 -11.863281 7.613281 -11.804688 7.621094 -11.730469 C 7.613281 -11.65625 7.601562 -11.582031 7.59375 -11.507812 C 7.539062 -11.332031 7.503906 -11.179688 7.449219 -11.027344 C 7.394531 -10.871094 7.351562 -10.753906 7.324219 -10.695312 C 7.097656 -10.28125 6.757812 -9.886719 6.28125 -9.53125 Z M 6.28125 -9.53125 "/></g></g></g><g fill="#5271ff" fill-opacity="1"><g transform="translate(12.716495, 22.419216)"><g><path d="M 8.445312 -11.945312 C 8.734375 -12.019531 8.976562 -12.160156 9.210938 -12.335938 C 9.429688 -12.511719 9.605469 -12.738281 9.757812 -13.015625 C 10.023438 -13.546875 10.015625 -14.210938 9.773438 -14.996094 C 9.503906 -14.777344 9.234375 -14.691406 9.011719 -14.699219 C 8.769531 -14.707031 8.578125 -14.773438 8.425781 -14.941406 C 8.261719 -15.085938 8.144531 -15.296875 8.074219 -15.546875 C 8.007812 -15.796875 7.992188 -16.054688 8.03125 -16.355469 C 8.128906 -16.921875 8.351562 -17.355469 8.722656 -17.644531 C 9.09375 -17.929688 9.515625 -18.128906 9.984375 -18.226562 C 10.453125 -18.320312 10.945312 -18.382812 11.425781 -18.382812 C 11.890625 -18.367188 12.359375 -18.332031 12.808594 -18.277344 C 13.261719 -18.222656 13.695312 -18.148438 14.113281 -18.050781 C 14.304688 -18 14.496094 -17.949219 14.671875 -17.898438 C 14.84375 -17.84375 15.015625 -17.808594 15.1875 -17.757812 C 15.34375 -17.703125 15.519531 -17.632812 15.691406 -17.578125 C 15.847656 -17.503906 16.042969 -17.4375 16.253906 -17.351562 C 16.453125 -17.265625 16.664062 -17.179688 16.878906 -17.097656 C 17.09375 -17.011719 17.304688 -16.945312 17.535156 -16.882812 C 17.980469 -16.730469 18.4375 -16.621094 18.910156 -16.550781 C 19.363281 -16.476562 19.804688 -16.476562 20.203125 -16.5625 C 20.53125 -16.601562 20.832031 -16.714844 21.070312 -16.890625 C 21.308594 -17.050781 21.507812 -17.242188 21.664062 -17.484375 C 21.800781 -17.703125 21.902344 -17.9375 21.945312 -18.203125 C 21.988281 -18.449219 21.992188 -18.707031 21.960938 -18.964844 C 21.914062 -19.179688 21.835938 -19.390625 21.714844 -19.601562 C 21.597656 -19.808594 21.441406 -20.011719 21.253906 -20.191406 C 21.050781 -20.351562 20.828125 -20.507812 20.550781 -20.640625 C 20.277344 -20.753906 19.988281 -20.847656 19.648438 -20.898438 C 19.703125 -20.460938 19.707031 -20.128906 19.628906 -19.859375 C 19.550781 -19.59375 19.429688 -19.375 19.265625 -19.222656 C 19.097656 -19.054688 18.890625 -18.9375 18.640625 -18.867188 C 18.390625 -18.800781 18.136719 -18.75 17.878906 -18.753906 C 17.511719 -18.730469 17.160156 -18.722656 16.824219 -18.753906 C 16.46875 -18.765625 16.132812 -18.800781 15.8125 -18.851562 L 13.871094 -19.113281 C 13.234375 -19.183594 12.582031 -19.210938 11.9375 -19.207031 C 11.289062 -19.199219 10.597656 -19.113281 9.84375 -18.910156 C 9.34375 -18.773438 8.847656 -18.585938 8.355469 -18.355469 C 7.867188 -18.128906 7.4375 -17.875 7.046875 -17.585938 C 6.640625 -17.273438 6.296875 -16.917969 6.007812 -16.550781 C 5.722656 -16.164062 5.550781 -15.753906 5.460938 -15.296875 C 5.371094 -14.824219 5.375 -14.34375 5.488281 -13.875 C 5.582031 -13.40625 5.777344 -13.003906 6.042969 -12.667969 C 6.308594 -12.3125 6.636719 -12.054688 7.042969 -11.902344 C 7.433594 -11.746094 7.914062 -11.769531 8.445312 -11.945312 Z M 3.492188 -0.488281 C 4.082031 -0.523438 4.628906 -0.738281 5.136719 -1.117188 C 5.644531 -1.492188 6.140625 -1.980469 6.621094 -2.578125 C 7.105469 -3.15625 7.542969 -3.820312 7.96875 -4.574219 C 8.394531 -5.3125 8.816406 -6.085938 9.234375 -6.898438 C 9.460938 -7.332031 9.710938 -7.84375 9.996094 -8.398438 C 10.277344 -8.949219 10.578125 -9.523438 10.910156 -10.140625 L 11.390625 -11.03125 C 11.769531 -11.707031 12.167969 -12.386719 12.566406 -13.066406 C 12.960938 -13.742188 13.351562 -14.347656 13.746094 -14.894531 C 14.125 -15.421875 14.476562 -15.855469 14.84375 -16.195312 C 15.191406 -16.535156 15.5 -16.742188 15.785156 -16.8125 C 15.433594 -17.101562 15.058594 -17.167969 14.667969 -17.007812 C 14.261719 -16.847656 13.820312 -16.535156 13.320312 -16.082031 C 13.171875 -15.933594 12.980469 -15.6875 12.726562 -15.34375 C 12.476562 -14.980469 12.175781 -14.570312 11.863281 -14.089844 C 11.535156 -13.605469 11.175781 -13.078125 10.800781 -12.515625 C 10.425781 -11.949219 10.03125 -11.382812 9.640625 -10.816406 L 8.996094 -9.902344 C 8.707031 -9.535156 8.4375 -9.167969 8.164062 -8.835938 C 7.890625 -8.507812 7.632812 -8.199219 7.386719 -7.945312 C 7.042969 -7.570312 6.714844 -7.234375 6.382812 -6.933594 C 6.050781 -6.613281 5.710938 -6.351562 5.386719 -6.125 C 5.046875 -5.878906 4.738281 -5.695312 4.441406 -5.566406 C 4.140625 -5.433594 3.871094 -5.363281 3.613281 -5.371094 C 3.355469 -5.355469 3.105469 -5.417969 2.886719 -5.539062 C 2.667969 -5.660156 2.496094 -5.878906 2.363281 -6.195312 C 2.214844 -6.492188 2.128906 -6.890625 2.085938 -7.382812 C 2.046875 -7.859375 2.082031 -8.476562 2.195312 -9.210938 C 1.703125 -8.984375 1.277344 -8.691406 0.953125 -8.316406 C 0.609375 -7.941406 0.328125 -7.535156 0.105469 -7.082031 C -0.132812 -6.609375 -0.292969 -6.128906 -0.378906 -5.617188 C -0.480469 -5.085938 -0.511719 -4.582031 -0.488281 -4.105469 C -0.460938 -3.589844 -0.363281 -3.082031 -0.195312 -2.621094 C -0.0273438 -2.164062 0.207031 -1.765625 0.542969 -1.4375 C 0.863281 -1.085938 1.269531 -0.824219 1.75 -0.660156 C 2.234375 -0.480469 2.816406 -0.421875 3.492188 -0.488281 Z M 3.492188 -0.488281 "/></g></g></g><g fill="#5271ff" fill-opacity="1"><g transform="translate(24.492177, 20.96482)"><g><path d="M 5.796875 -0.882812 L 5.730469 -0.820312 C 6.238281 -0.882812 6.730469 -1.089844 7.222656 -1.464844 C 7.699219 -1.820312 8.160156 -2.265625 8.578125 -2.78125 C 8.980469 -3.273438 9.339844 -3.820312 9.675781 -4.378906 C 10.015625 -4.9375 10.28125 -5.472656 10.484375 -5.941406 C 10.453125 -5.898438 10.417969 -5.878906 10.367188 -5.832031 C 10.316406 -5.789062 10.269531 -5.730469 10.203125 -5.664062 C 10.054688 -5.5 9.890625 -5.332031 9.710938 -5.160156 C 9.53125 -4.972656 9.332031 -4.78125 9.113281 -4.585938 C 8.652344 -4.140625 8.265625 -3.816406 7.917969 -3.625 C 7.746094 -3.511719 7.605469 -3.476562 7.507812 -3.5 C 7.414062 -3.527344 7.382812 -3.632812 7.414062 -3.820312 C 7.425781 -4.007812 7.554688 -4.320312 7.765625 -4.714844 L 11.066406 -11.101562 L 8.496094 -10.785156 L 7.535156 -8.964844 C 7.492188 -9.328125 7.402344 -9.613281 7.242188 -9.851562 C 7.085938 -10.074219 6.898438 -10.238281 6.660156 -10.355469 C 6.410156 -10.453125 6.125 -10.492188 5.832031 -10.492188 C 5.535156 -10.476562 5.210938 -10.398438 4.894531 -10.285156 C 4.648438 -10.179688 4.367188 -10.035156 4.082031 -9.816406 C 3.792969 -9.59375 3.507812 -9.355469 3.210938 -9.058594 C 2.914062 -8.761719 2.605469 -8.429688 2.300781 -8.058594 C 1.992188 -7.6875 1.707031 -7.320312 1.421875 -6.914062 C 1.074219 -6.425781 0.765625 -5.945312 0.492188 -5.449219 C 0.207031 -4.929688 -0.03125 -4.4375 -0.230469 -3.953125 C -0.371094 -3.601562 -0.488281 -3.199219 -0.542969 -2.746094 C -0.597656 -2.296875 -0.601562 -1.886719 -0.519531 -1.507812 C -0.453125 -1.109375 -0.300781 -0.796875 -0.0859375 -0.542969 C 0.128906 -0.292969 0.457031 -0.1875 0.914062 -0.242188 C 1.535156 -0.320312 2.175781 -0.527344 2.792969 -0.902344 C 3.089844 -1.066406 3.359375 -1.265625 3.613281 -1.484375 C 3.863281 -1.699219 4.074219 -1.945312 4.226562 -2.207031 C 4.242188 -1.78125 4.394531 -1.449219 4.683594 -1.1875 C 4.957031 -0.925781 5.320312 -0.824219 5.796875 -0.882812 Z M 2.464844 -2.820312 C 2.289062 -2.894531 2.164062 -3.023438 2.082031 -3.238281 C 2 -3.449219 2 -3.726562 2.066406 -4.085938 C 2.117188 -4.425781 2.253906 -4.832031 2.488281 -5.34375 C 2.722656 -5.832031 3.058594 -6.410156 3.496094 -7.078125 C 3.679688 -7.359375 3.867188 -7.640625 4.09375 -7.929688 C 4.296875 -8.210938 4.527344 -8.460938 4.753906 -8.714844 C 4.964844 -8.941406 5.203125 -9.136719 5.460938 -9.28125 C 5.703125 -9.421875 5.972656 -9.492188 6.265625 -9.527344 C 6.429688 -9.53125 6.566406 -9.492188 6.667969 -9.410156 C 6.753906 -9.3125 6.824219 -9.191406 6.878906 -9.03125 C 6.917969 -8.871094 6.941406 -8.6875 6.933594 -8.464844 C 6.921875 -8.242188 6.914062 -8.015625 6.871094 -7.769531 L 6.886719 -7.773438 L 5.316406 -4.914062 C 5.199219 -4.675781 5.027344 -4.414062 4.839844 -4.132812 C 4.632812 -3.847656 4.40625 -3.578125 4.160156 -3.34375 C 3.894531 -3.089844 3.621094 -2.910156 3.335938 -2.800781 C 3.039062 -2.671875 2.742188 -2.671875 2.464844 -2.820312 Z M 2.464844 -2.820312 "/></g></g></g><g fill="#5271ff" fill-opacity="1"><g transform="translate(33.916311, 19.80086)"><g><path d="M 3.730469 -0.832031 C 4.261719 -1.15625 4.671875 -1.578125 4.976562 -2.113281 C 5.265625 -2.628906 5.476562 -3.175781 5.625 -3.75 C 5.757812 -4.320312 5.875 -4.890625 5.949219 -5.472656 C 6.027344 -6.054688 6.085938 -6.636719 6.121094 -7.234375 C 6.125 -7.511719 6.144531 -7.792969 6.167969 -8.054688 C 6.171875 -8.3125 6.195312 -8.578125 6.21875 -8.839844 L 6.257812 -8.824219 C 6.410156 -8.9375 6.609375 -9.144531 6.867188 -9.4375 C 7.128906 -9.726562 7.363281 -10.070312 7.578125 -10.429688 C 7.714844 -10.671875 7.832031 -10.90625 7.933594 -11.140625 C 8.035156 -11.375 8.101562 -11.589844 8.113281 -11.792969 C 8.125 -11.980469 8.085938 -12.160156 7.996094 -12.296875 C 7.902344 -12.433594 7.742188 -12.542969 7.511719 -12.609375 C 7.324219 -12.640625 7.125 -12.597656 6.921875 -12.460938 C 6.714844 -12.324219 6.53125 -12.152344 6.339844 -11.90625 C 6.128906 -11.660156 5.941406 -11.378906 5.761719 -11.058594 C 5.578125 -10.738281 5.410156 -10.441406 5.28125 -10.128906 C 5.136719 -9.816406 5.007812 -9.503906 4.914062 -9.214844 C 4.820312 -8.925781 4.773438 -8.695312 4.761719 -8.511719 C 4.523438 -8.332031 4.261719 -8.207031 3.996094 -8.121094 C 3.710938 -8.011719 3.441406 -7.941406 3.171875 -7.886719 C 2.902344 -7.835938 2.644531 -7.804688 2.386719 -7.808594 C 2.125 -7.816406 1.882812 -7.820312 1.660156 -7.847656 C 1.757812 -7.640625 1.921875 -7.511719 2.136719 -7.425781 C 2.351562 -7.34375 2.59375 -7.316406 2.886719 -7.335938 C 3.167969 -7.332031 3.457031 -7.386719 3.773438 -7.5 C 4.078125 -7.59375 4.394531 -7.726562 4.726562 -7.875 C 4.679688 -7.054688 4.601562 -6.363281 4.480469 -5.828125 C 4.363281 -5.296875 4.214844 -4.851562 4.03125 -4.515625 C 3.824219 -4.101562 3.566406 -3.808594 3.253906 -3.621094 C 2.945312 -3.4375 2.65625 -3.363281 2.394531 -3.386719 C 2.117188 -3.390625 1.902344 -3.472656 1.75 -3.660156 C 1.601562 -3.824219 1.585938 -4.082031 1.695312 -4.410156 C 1.773438 -4.679688 1.933594 -4.882812 2.136719 -5.039062 C 2.339844 -5.195312 2.542969 -5.199219 2.726562 -5.039062 C 2.820312 -5.179688 2.875 -5.351562 2.847656 -5.554688 C 2.828125 -5.71875 2.753906 -5.875 2.644531 -6.027344 C 2.515625 -6.160156 2.355469 -6.25 2.160156 -6.339844 C 1.964844 -6.40625 1.742188 -6.417969 1.523438 -6.390625 C 1.035156 -6.308594 0.636719 -6.09375 0.308594 -5.738281 C -0.015625 -5.382812 -0.261719 -4.964844 -0.425781 -4.5 C -0.589844 -4.035156 -0.640625 -3.546875 -0.617188 -3.035156 C -0.605469 -2.515625 -0.492188 -2.03125 -0.292969 -1.613281 C -0.0898438 -1.191406 0.191406 -0.839844 0.59375 -0.589844 C 0.976562 -0.324219 1.453125 -0.214844 2.039062 -0.269531 C 2.609375 -0.304688 3.175781 -0.503906 3.730469 -0.832031 Z M 6.28125 -9.53125 C 6.320312 -9.8125 6.359375 -10.097656 6.4375 -10.363281 C 6.515625 -10.632812 6.613281 -10.90625 6.746094 -11.179688 L 6.75 -11.144531 C 6.804688 -11.28125 6.882812 -11.417969 6.960938 -11.539062 C 7.019531 -11.65625 7.097656 -11.761719 7.175781 -11.882812 C 7.304688 -12.046875 7.421875 -12.132812 7.515625 -12.144531 C 7.589844 -12.117188 7.617188 -12.046875 7.632812 -11.9375 C 7.625 -11.863281 7.613281 -11.804688 7.621094 -11.730469 C 7.613281 -11.65625 7.601562 -11.582031 7.59375 -11.507812 C 7.539062 -11.332031 7.503906 -11.179688 7.449219 -11.027344 C 7.394531 -10.871094 7.351562 -10.753906 7.324219 -10.695312 C 7.097656 -10.28125 6.757812 -9.886719 6.28125 -9.53125 Z M 6.28125 -9.53125 "/></g></g></g><g fill="#5271ff" fill-opacity="1"><g transform="translate(39.731093, 19.082685)"><g><path d="M -0.152344 -4.089844 L -2.40625 0.148438 L 0.347656 -0.191406 L 2.339844 -3.972656 C 2.550781 -2.886719 2.847656 -2.109375 3.222656 -1.621094 C 3.582031 -1.128906 4.003906 -0.847656 4.457031 -0.773438 C 4.894531 -0.679688 5.363281 -0.773438 5.847656 -1.054688 C 6.332031 -1.335938 6.820312 -1.710938 7.300781 -2.195312 C 7.761719 -2.660156 8.195312 -3.195312 8.601562 -3.800781 C 9.007812 -4.40625 9.359375 -5.007812 9.636719 -5.59375 C 9.488281 -5.449219 9.359375 -5.300781 9.226562 -5.175781 C 9.097656 -5.027344 8.964844 -4.882812 8.855469 -4.738281 C 8.628906 -4.453125 8.386719 -4.183594 8.117188 -3.964844 C 7.851562 -3.726562 7.554688 -3.5625 7.234375 -3.484375 C 6.910156 -3.390625 6.5 -3.414062 6.039062 -3.558594 C 5.675781 -3.664062 5.339844 -3.824219 5.03125 -4.0625 C 4.726562 -4.285156 4.472656 -4.550781 4.25 -4.855469 C 4.414062 -4.875 4.628906 -4.941406 4.875 -5.042969 C 5.347656 -5.25 5.90625 -5.542969 6.519531 -5.949219 C 6.8125 -6.136719 7.167969 -6.402344 7.609375 -6.734375 C 8.03125 -7.0625 8.394531 -7.421875 8.714844 -7.8125 C 9.019531 -8.183594 9.21875 -8.523438 9.328125 -8.832031 C 9.441406 -9.144531 9.445312 -9.402344 9.363281 -9.617188 C 9.261719 -9.824219 9.113281 -9.972656 8.878906 -10.074219 C 8.644531 -10.175781 8.363281 -10.214844 8.015625 -10.171875 C 7.671875 -10.128906 7.28125 -9.988281 6.828125 -9.765625 C 6.234375 -9.46875 5.6875 -9.085938 5.191406 -8.617188 C 4.695312 -8.148438 4.25 -7.6875 3.882812 -7.234375 L 3.867188 -7.214844 L 5.402344 -10.070312 C 5.519531 -10.175781 5.652344 -10.285156 5.804688 -10.414062 C 5.953125 -10.546875 6.121094 -10.675781 6.289062 -10.828125 C 6.4375 -10.957031 6.605469 -11.105469 6.773438 -11.257812 C 6.9375 -11.40625 7.125 -11.558594 7.304688 -11.730469 C 7.65625 -12.050781 8.019531 -12.394531 8.382812 -12.753906 C 8.746094 -13.113281 9.070312 -13.484375 9.390625 -13.894531 C 9.695312 -14.285156 9.960938 -14.667969 10.207031 -15.070312 C 10.4375 -15.46875 10.59375 -15.839844 10.695312 -16.203125 C 10.785156 -16.546875 10.796875 -16.882812 10.742188 -17.171875 C 10.671875 -17.457031 10.507812 -17.714844 10.222656 -17.941406 C 10.023438 -18.0625 9.789062 -18.164062 9.523438 -18.207031 C 9.257812 -18.246094 8.964844 -18.230469 8.660156 -18.152344 C 8.339844 -18.058594 8.042969 -17.910156 7.738281 -17.6875 C 7.429688 -17.464844 7.171875 -17.175781 6.9375 -16.8125 C 6.503906 -16.128906 6.070312 -15.445312 5.671875 -14.769531 C 5.273438 -14.089844 4.863281 -13.390625 4.46875 -12.675781 C 3.664062 -11.261719 2.875 -9.832031 2.109375 -8.40625 C 1.34375 -6.957031 0.597656 -5.515625 -0.152344 -4.089844 Z M 5.707031 -11.179688 L 9.058594 -16.722656 C 9.148438 -16.882812 9.285156 -16.992188 9.425781 -17.046875 C 9.570312 -17.082031 9.679688 -17.078125 9.800781 -17.019531 C 9.882812 -16.953125 9.96875 -16.851562 10.023438 -16.710938 C 10.078125 -16.570312 10.082031 -16.386719 10.054688 -16.160156 C 10.007812 -15.933594 9.894531 -15.660156 9.746094 -15.363281 C 9.597656 -15.050781 9.363281 -14.707031 9.058594 -14.335938 C 8.800781 -14.007812 8.507812 -13.691406 8.199219 -13.359375 C 7.867188 -13.023438 7.554688 -12.707031 7.242188 -12.40625 C 6.945312 -12.113281 6.660156 -11.871094 6.390625 -11.65625 C 6.121094 -11.4375 5.882812 -11.277344 5.707031 -11.179688 Z M 2.507812 -4.417969 L 3.273438 -5.863281 L 4.0625 -6.664062 C 4.210938 -6.8125 4.359375 -6.960938 4.523438 -7.128906 C 4.691406 -7.28125 4.839844 -7.429688 5.003906 -7.597656 C 5.316406 -7.894531 5.621094 -8.136719 5.914062 -8.320312 C 6.207031 -8.503906 6.4375 -8.585938 6.589844 -8.53125 L 6.59375 -8.515625 C 6.847656 -8.414062 6.957031 -8.261719 6.90625 -8.070312 C 6.859375 -7.863281 6.703125 -7.621094 6.476562 -7.371094 C 6.230469 -7.101562 5.933594 -6.824219 5.558594 -6.535156 C 5.191406 -6.230469 4.816406 -5.960938 4.425781 -5.691406 C 4.015625 -5.402344 3.65625 -5.152344 3.316406 -4.925781 C 2.972656 -4.699219 2.699219 -4.535156 2.507812 -4.417969 Z M 2.507812 -4.417969 "/></g></g></g><g fill="#5271ff" fill-opacity="1"><g transform="translate(47.89742, 18.074075)"><g><path d="M 3.730469 -0.832031 C 4.261719 -1.15625 4.671875 -1.578125 4.976562 -2.113281 C 5.265625 -2.628906 5.476562 -3.175781 5.625 -3.75 C 5.757812 -4.320312 5.875 -4.890625 5.949219 -5.472656 C 6.027344 -6.054688 6.085938 -6.636719 6.121094 -7.234375 C 6.125 -7.511719 6.144531 -7.792969 6.167969 -8.054688 C 6.171875 -8.3125 6.195312 -8.578125 6.21875 -8.839844 L 6.257812 -8.824219 C 6.410156 -8.9375 6.609375 -9.144531 6.867188 -9.4375 C 7.128906 -9.726562 7.363281 -10.070312 7.578125 -10.429688 C 7.714844 -10.671875 7.832031 -10.90625 7.933594 -11.140625 C 8.035156 -11.375 8.101562 -11.589844 8.113281 -11.792969 C 8.125 -11.980469 8.085938 -12.160156 7.996094 -12.296875 C 7.902344 -12.433594 7.742188 -12.542969 7.511719 -12.609375 C 7.324219 -12.640625 7.125 -12.597656 6.921875 -12.460938 C 6.714844 -12.324219 6.53125 -12.152344 6.339844 -11.90625 C 6.128906 -11.660156 5.941406 -11.378906 5.761719 -11.058594 C 5.578125 -10.738281 5.410156 -10.441406 5.28125 -10.128906 C 5.136719 -9.816406 5.007812 -9.503906 4.914062 -9.214844 C 4.820312 -8.925781 4.773438 -8.695312 4.761719 -8.511719 C 4.523438 -8.332031 4.261719 -8.207031 3.996094 -8.121094 C 3.710938 -8.011719 3.441406 -7.941406 3.171875 -7.886719 C 2.902344 -7.835938 2.644531 -7.804688 2.386719 -7.808594 C 2.125 -7.816406 1.882812 -7.820312 1.660156 -7.847656 C 1.757812 -7.640625 1.921875 -7.511719 2.136719 -7.425781 C 2.351562 -7.34375 2.59375 -7.316406 2.886719 -7.335938 C 3.167969 -7.332031 3.457031 -7.386719 3.773438 -7.5 C 4.078125 -7.59375 4.394531 -7.726562 4.726562 -7.875 C 4.679688 -7.054688 4.601562 -6.363281 4.480469 -5.828125 C 4.363281 -5.296875 4.214844 -4.851562 4.03125 -4.515625 C 3.824219 -4.101562 3.566406 -3.808594 3.253906 -3.621094 C 2.945312 -3.4375 2.65625 -3.363281 2.394531 -3.386719 C 2.117188 -3.390625 1.902344 -3.472656 1.75 -3.660156 C 1.601562 -3.824219 1.585938 -4.082031 1.695312 -4.410156 C 1.773438 -4.679688 1.933594 -4.882812 2.136719 -5.039062 C 2.339844 -5.195312 2.542969 -5.199219 2.726562 -5.039062 C 2.820312 -5.179688 2.875 -5.351562 2.847656 -5.554688 C 2.828125 -5.71875 2.753906 -5.875 2.644531 -6.027344 C 2.515625 -6.160156 2.355469 -6.25 2.160156 -6.339844 C 1.964844 -6.40625 1.742188 -6.417969 1.523438 -6.390625 C 1.035156 -6.308594 0.636719 -6.09375 0.308594 -5.738281 C -0.015625 -5.382812 -0.261719 -4.964844 -0.425781 -4.5 C -0.589844 -4.035156 -0.640625 -3.546875 -0.617188 -3.035156 C -0.605469 -2.515625 -0.492188 -2.03125 -0.292969 -1.613281 C -0.0898438 -1.191406 0.191406 -0.839844 0.59375 -0.589844 C 0.976562 -0.324219 1.453125 -0.214844 2.039062 -0.269531 C 2.609375 -0.304688 3.175781 -0.503906 3.730469 -0.832031 Z M 6.28125 -9.53125 C 6.320312 -9.8125 6.359375 -10.097656 6.4375 -10.363281 C 6.515625 -10.632812 6.613281 -10.90625 6.746094 -11.179688 L 6.75 -11.144531 C 6.804688 -11.28125 6.882812 -11.417969 6.960938 -11.539062 C 7.019531 -11.65625 7.097656 -11.761719 7.175781 -11.882812 C 7.304688 -12.046875 7.421875 -12.132812 7.515625 -12.144531 C 7.589844 -12.117188 7.617188 -12.046875 7.632812 -11.9375 C 7.625 -11.863281 7.613281 -11.804688 7.621094 -11.730469 C 7.613281 -11.65625 7.601562 -11.582031 7.59375 -11.507812 C 7.539062 -11.332031 7.503906 -11.179688 7.449219 -11.027344 C 7.394531 -10.871094 7.351562 -10.753906 7.324219 -10.695312 C 7.097656 -10.28125 6.757812 -9.886719 6.28125 -9.53125 Z M 6.28125 -9.53125 "/></g></g></g><g fill="#a6a6a6" fill-opacity="1"><g transform="translate(8.145216, 36.582861)"><g><path d="M 18.792969 -18.832031 C 18.039062 -19.238281 17.0625 -19.507812 15.898438 -19.660156 C 14.714844 -19.789062 13.292969 -19.746094 11.621094 -19.5 L 11.605469 -19.480469 C 10.460938 -19.300781 9.53125 -19.058594 8.832031 -18.710938 C 8.132812 -18.367188 7.585938 -18.003906 7.210938 -17.585938 C 6.820312 -17.167969 6.597656 -16.714844 6.507812 -16.257812 C 6.414062 -15.804688 6.433594 -15.363281 6.554688 -14.96875 C 6.65625 -14.613281 6.824219 -14.28125 7.046875 -13.992188 C 7.265625 -13.707031 7.535156 -13.480469 7.832031 -13.3125 C 8.113281 -13.125 8.402344 -13.03125 8.71875 -13.035156 C 9.015625 -13.035156 9.316406 -13.125 9.605469 -13.347656 C 9.125 -13.953125 8.847656 -14.550781 8.8125 -15.117188 C 8.761719 -15.667969 8.886719 -16.183594 9.160156 -16.660156 C 9.417969 -17.117188 9.792969 -17.535156 10.300781 -17.894531 C 10.796875 -18.25 11.351562 -18.542969 11.953125 -18.765625 C 12.554688 -18.988281 13.148438 -19.132812 13.769531 -19.210938 C 14.371094 -19.285156 14.925781 -19.28125 15.4375 -19.195312 C 16.15625 -19.0625 16.707031 -18.777344 17.113281 -18.347656 C 17.5 -17.914062 17.769531 -17.390625 17.894531 -16.8125 C 18.011719 -16.164062 17.949219 -15.488281 17.695312 -14.828125 C 17.445312 -14.148438 17.078125 -13.53125 16.59375 -12.953125 C 16.175781 -12.457031 15.730469 -12.011719 15.238281 -11.65625 C 14.726562 -11.296875 14.242188 -11.03125 13.742188 -10.878906 C 13.277344 -10.726562 12.859375 -10.695312 12.460938 -10.757812 C 12.046875 -10.816406 11.726562 -11.019531 11.476562 -11.394531 C 11.65625 -11.730469 11.835938 -12.066406 12.019531 -12.386719 C 12.203125 -12.707031 12.402344 -13.027344 12.585938 -13.34375 C 13.074219 -14.183594 13.59375 -14.933594 14.101562 -15.605469 C 14.609375 -16.277344 15.136719 -16.824219 15.660156 -17.222656 C 15.179688 -17.070312 14.695312 -16.808594 14.222656 -16.417969 C 13.753906 -16.023438 13.273438 -15.578125 12.800781 -15.039062 C 12.3125 -14.496094 11.8125 -13.898438 11.339844 -13.246094 C 10.863281 -12.597656 10.386719 -11.964844 9.914062 -11.3125 C 9.417969 -10.660156 8.941406 -10.027344 8.460938 -9.410156 C 7.984375 -8.796875 7.492188 -8.273438 7.03125 -7.808594 C 6.554688 -7.324219 6.085938 -6.933594 5.621094 -6.652344 C 5.136719 -6.371094 4.671875 -6.222656 4.207031 -6.238281 C 3.804688 -6.226562 3.492188 -6.355469 3.242188 -6.582031 C 2.992188 -6.8125 2.789062 -7.101562 2.652344 -7.453125 C 2.5 -7.785156 2.398438 -8.164062 2.347656 -8.5625 C 2.296875 -8.964844 2.273438 -9.332031 2.300781 -9.707031 C 1.855469 -9.390625 1.453125 -9.0625 1.09375 -8.6875 C 0.730469 -8.308594 0.410156 -7.917969 0.132812 -7.476562 C -0.164062 -7.03125 -0.402344 -6.558594 -0.5625 -6.058594 C -0.742188 -5.554688 -0.847656 -5.058594 -0.855469 -4.539062 C -0.894531 -3.941406 -0.804688 -3.378906 -0.628906 -2.847656 C -0.453125 -2.3125 -0.15625 -1.851562 0.222656 -1.488281 C 0.585938 -1.109375 1.042969 -0.832031 1.585938 -0.640625 C 2.128906 -0.449219 2.761719 -0.414062 3.492188 -0.503906 C 4.003906 -0.566406 4.507812 -0.816406 5.046875 -1.253906 C 5.550781 -1.667969 6.058594 -2.210938 6.566406 -2.882812 C 7.074219 -3.558594 7.574219 -4.324219 8.074219 -5.199219 C 8.5625 -6.054688 9.0625 -6.949219 9.5625 -7.863281 C 10.058594 -8.777344 10.570312 -9.726562 11.082031 -10.679688 C 11.144531 -10.761719 11.1875 -10.878906 11.246094 -10.996094 C 11.242188 -10.585938 11.339844 -10.25 11.542969 -9.957031 C 11.746094 -9.652344 12.015625 -9.425781 12.332031 -9.242188 C 12.734375 -8.996094 13.179688 -8.847656 13.703125 -8.800781 C 14.226562 -8.753906 14.738281 -8.796875 15.234375 -8.972656 C 15.984375 -9.210938 16.6875 -9.519531 17.304688 -9.910156 C 17.925781 -10.285156 18.480469 -10.722656 18.976562 -11.210938 C 19.605469 -11.804688 20.078125 -12.476562 20.417969 -13.183594 C 20.738281 -13.890625 20.90625 -14.613281 20.929688 -15.320312 C 20.9375 -16.023438 20.765625 -16.667969 20.425781 -17.292969 C 20.09375 -17.898438 19.550781 -18.40625 18.792969 -18.832031 Z M 18.792969 -18.832031 "/></g></g></g><g fill="#a6a6a6" fill-opacity="1"><g transform="translate(23.275044, 34.714199)"><g><path d="M -0.0664062 -0.101562 C 0.308594 -0.0390625 0.746094 -0.09375 1.246094 -0.265625 C 1.742188 -0.4375 2.242188 -0.722656 2.75 -1.117188 C 3.257812 -1.511719 3.730469 -2.015625 4.191406 -2.628906 C 4.632812 -3.238281 5.027344 -3.953125 5.335938 -4.769531 C 5.222656 -4.625 5.109375 -4.480469 4.996094 -4.355469 C 4.882812 -4.230469 4.769531 -4.105469 4.652344 -4 C 4.386719 -3.742188 4.117188 -3.527344 3.84375 -3.34375 C 3.570312 -3.160156 3.328125 -3.019531 3.082031 -2.917969 C 2.820312 -2.792969 2.585938 -2.726562 2.382812 -2.738281 C 2.179688 -2.730469 2.058594 -2.808594 2.003906 -2.949219 C 1.933594 -3.089844 1.910156 -3.253906 1.957031 -3.480469 C 2.007812 -3.691406 2.085938 -3.941406 2.199219 -4.214844 C 2.316406 -4.46875 2.433594 -4.722656 2.550781 -4.980469 C 2.667969 -5.214844 2.804688 -5.457031 2.929688 -5.65625 C 3.050781 -5.855469 3.144531 -6.015625 3.1875 -6.113281 L 3.171875 -6.09375 L 5.378906 -10.253906 C 5.496094 -10.359375 5.628906 -10.46875 5.78125 -10.597656 C 5.929688 -10.726562 6.082031 -10.859375 6.246094 -11.007812 C 6.398438 -11.136719 6.550781 -11.265625 6.714844 -11.417969 C 6.882812 -11.550781 7.050781 -11.699219 7.234375 -11.871094 C 7.566406 -12.171875 7.914062 -12.492188 8.246094 -12.828125 C 8.574219 -13.164062 8.898438 -13.539062 9.199219 -13.925781 C 9.503906 -14.316406 9.769531 -14.699219 10.019531 -15.101562 C 10.246094 -15.5 10.40625 -15.871094 10.507812 -16.234375 C 10.59375 -16.578125 10.609375 -16.914062 10.554688 -17.203125 C 10.480469 -17.492188 10.320312 -17.75 10.035156 -17.972656 C 9.832031 -18.09375 9.597656 -18.195312 9.335938 -18.238281 C 9.070312 -18.277344 8.777344 -18.261719 8.472656 -18.1875 C 8.148438 -18.089844 7.851562 -17.945312 7.546875 -17.71875 C 7.242188 -17.496094 6.980469 -17.207031 6.75 -16.84375 C 5.589844 -15 4.519531 -13.164062 3.523438 -11.335938 C 2.527344 -9.511719 1.515625 -7.648438 0.492188 -5.742188 L -0.0234375 -4.828125 C -0.113281 -4.652344 -0.199219 -4.472656 -0.292969 -4.3125 C -0.382812 -4.15625 -0.453125 -3.980469 -0.527344 -3.820312 C -0.707031 -3.464844 -0.851562 -3.132812 -0.957031 -2.789062 C -1.078125 -2.441406 -1.148438 -2.097656 -1.164062 -1.78125 C -1.210938 -1.257812 -1.125 -0.859375 -0.925781 -0.589844 C -0.722656 -0.316406 -0.445312 -0.148438 -0.0664062 -0.101562 Z M 5.433594 -11.148438 L 8.855469 -16.734375 C 8.945312 -16.894531 9.078125 -17.003906 9.222656 -17.058594 C 9.363281 -17.09375 9.476562 -17.089844 9.59375 -17.03125 C 9.675781 -16.964844 9.761719 -16.863281 9.816406 -16.722656 C 9.871094 -16.582031 9.875 -16.398438 9.847656 -16.171875 C 9.804688 -15.945312 9.6875 -15.671875 9.539062 -15.375 C 9.394531 -15.0625 9.160156 -14.71875 8.851562 -14.347656 C 8.597656 -14.019531 8.300781 -13.703125 7.992188 -13.371094 C 7.664062 -13.035156 7.351562 -12.71875 7.035156 -12.417969 C 6.703125 -12.117188 6.402344 -11.839844 6.117188 -11.621094 C 5.828125 -11.398438 5.609375 -11.242188 5.433594 -11.148438 Z M 5.433594 -11.148438 "/></g></g></g><g fill="#a6a6a6" fill-opacity="1"><g transform="translate(27.376292, 34.20766)"><g><path d="M 5.796875 -0.882812 L 5.730469 -0.820312 C 6.238281 -0.882812 6.730469 -1.089844 7.222656 -1.464844 C 7.699219 -1.820312 8.160156 -2.265625 8.578125 -2.78125 C 8.980469 -3.273438 9.339844 -3.820312 9.675781 -4.378906 C 10.015625 -4.9375 10.28125 -5.472656 10.484375 -5.941406 C 10.453125 -5.898438 10.417969 -5.878906 10.367188 -5.832031 C 10.316406 -5.789062 10.269531 -5.730469 10.203125 -5.664062 C 10.054688 -5.5 9.890625 -5.332031 9.710938 -5.160156 C 9.53125 -4.972656 9.332031 -4.78125 9.113281 -4.585938 C 8.652344 -4.140625 8.265625 -3.816406 7.917969 -3.625 C 7.746094 -3.511719 7.605469 -3.476562 7.507812 -3.5 C 7.414062 -3.527344 7.382812 -3.632812 7.414062 -3.820312 C 7.425781 -4.007812 7.554688 -4.320312 7.765625 -4.714844 L 11.066406 -11.101562 L 8.496094 -10.785156 L 7.535156 -8.964844 C 7.492188 -9.328125 7.402344 -9.613281 7.242188 -9.851562 C 7.085938 -10.074219 6.898438 -10.238281 6.660156 -10.355469 C 6.410156 -10.453125 6.125 -10.492188 5.832031 -10.492188 C 5.535156 -10.476562 5.210938 -10.398438 4.894531 -10.285156 C 4.648438 -10.179688 4.367188 -10.035156 4.082031 -9.816406 C 3.792969 -9.59375 3.507812 -9.355469 3.210938 -9.058594 C 2.914062 -8.761719 2.605469 -8.429688 2.300781 -8.058594 C 1.992188 -7.6875 1.707031 -7.320312 1.421875 -6.914062 C 1.074219 -6.425781 0.765625 -5.945312 0.492188 -5.449219 C 0.207031 -4.929688 -0.03125 -4.4375 -0.230469 -3.953125 C -0.371094 -3.601562 -0.488281 -3.199219 -0.542969 -2.746094 C -0.597656 -2.296875 -0.601562 -1.886719 -0.519531 -1.507812 C -0.453125 -1.109375 -0.300781 -0.796875 -0.0859375 -0.542969 C 0.128906 -0.292969 0.457031 -0.1875 0.914062 -0.242188 C 1.535156 -0.320312 2.175781 -0.527344 2.792969 -0.902344 C 3.089844 -1.066406 3.359375 -1.265625 3.613281 -1.484375 C 3.863281 -1.699219 4.074219 -1.945312 4.226562 -2.207031 C 4.242188 -1.78125 4.394531 -1.449219 4.683594 -1.1875 C 4.957031 -0.925781 5.320312 -0.824219 5.796875 -0.882812 Z M 2.464844 -2.820312 C 2.289062 -2.894531 2.164062 -3.023438 2.082031 -3.238281 C 2 -3.449219 2 -3.726562 2.066406 -4.085938 C 2.117188 -4.425781 2.253906 -4.832031 2.488281 -5.34375 C 2.722656 -5.832031 3.058594 -6.410156 3.496094 -7.078125 C 3.679688 -7.359375 3.867188 -7.640625 4.09375 -7.929688 C 4.296875 -8.210938 4.527344 -8.460938 4.753906 -8.714844 C 4.964844 -8.941406 5.203125 -9.136719 5.460938 -9.28125 C 5.703125 -9.421875 5.972656 -9.492188 6.265625 -9.527344 C 6.429688 -9.53125 6.566406 -9.492188 6.667969 -9.410156 C 6.753906 -9.3125 6.824219 -9.191406 6.878906 -9.03125 C 6.917969 -8.871094 6.941406 -8.6875 6.933594 -8.464844 C 6.921875 -8.242188 6.914062 -8.015625 6.871094 -7.769531 L 6.886719 -7.773438 L 5.316406 -4.914062 C 5.199219 -4.675781 5.027344 -4.414062 4.839844 -4.132812 C 4.632812 -3.847656 4.40625 -3.578125 4.160156 -3.34375 C 3.894531 -3.089844 3.621094 -2.910156 3.335938 -2.800781 C 3.039062 -2.671875 2.742188 -2.671875 2.464844 -2.820312 Z M 2.464844 -2.820312 "/></g></g></g><g fill="#a6a6a6" fill-opacity="1"><g transform="translate(36.800426, 33.0437)"><g><path d="M 1.828125 -6.925781 L -1.785156 0.21875 L 0.730469 -0.0898438 C 1.578125 -1.898438 2.285156 -3.390625 2.835938 -4.609375 C 3.390625 -5.824219 3.863281 -6.789062 4.273438 -7.523438 C 4.664062 -8.238281 5.027344 -8.765625 5.355469 -9.082031 C 5.691406 -9.382812 6.039062 -9.554688 6.421875 -9.585938 C 6.664062 -9.578125 6.839844 -9.507812 6.9375 -9.335938 C 7.03125 -9.160156 7.019531 -8.957031 6.867188 -8.695312 L 4.644531 -4.8125 C 4.519531 -4.613281 4.402344 -4.375 4.25 -4.117188 C 4.097656 -3.835938 3.984375 -3.566406 3.871094 -3.292969 C 3.738281 -2.996094 3.644531 -2.707031 3.585938 -2.421875 C 3.53125 -2.140625 3.523438 -1.878906 3.589844 -1.648438 C 3.640625 -1.394531 3.757812 -1.1875 3.964844 -1.027344 C 4.171875 -0.847656 4.480469 -0.738281 4.894531 -0.695312 C 5.15625 -0.65625 5.449219 -0.691406 5.734375 -0.765625 C 6.023438 -0.835938 6.265625 -0.960938 6.503906 -1.15625 C 6.738281 -1.332031 6.96875 -1.582031 7.210938 -1.871094 C 7.433594 -2.160156 7.671875 -2.484375 7.90625 -2.828125 C 8.125 -3.152344 8.328125 -3.472656 8.523438 -3.8125 C 8.707031 -4.128906 8.894531 -4.429688 9.042969 -4.707031 C 8.941406 -4.640625 8.824219 -4.53125 8.710938 -4.40625 C 8.648438 -4.324219 8.597656 -4.265625 8.53125 -4.199219 C 8.464844 -4.136719 8.398438 -4.074219 8.351562 -4.011719 C 8.21875 -3.882812 8.085938 -3.757812 7.949219 -3.664062 C 7.8125 -3.574219 7.671875 -3.519531 7.527344 -3.503906 C 7.308594 -3.476562 7.183594 -3.570312 7.175781 -3.8125 C 7.148438 -4.011719 7.207031 -4.296875 7.34375 -4.683594 C 7.46875 -5.03125 7.640625 -5.421875 7.84375 -5.875 C 8.050781 -6.304688 8.257812 -6.738281 8.460938 -7.171875 C 8.652344 -7.582031 8.828125 -7.957031 8.96875 -8.308594 C 9.113281 -8.640625 9.191406 -8.890625 9.210938 -9.058594 C 9.207031 -9.390625 9.175781 -9.648438 9.074219 -9.855469 C 8.972656 -10.066406 8.859375 -10.238281 8.695312 -10.367188 C 8.332031 -10.617188 7.949219 -10.734375 7.539062 -10.742188 C 7.132812 -10.746094 6.71875 -10.660156 6.332031 -10.460938 C 5.933594 -10.265625 5.558594 -9.996094 5.195312 -9.636719 C 4.835938 -9.257812 4.535156 -8.851562 4.257812 -8.375 C 4.34375 -8.902344 4.347656 -9.3125 4.253906 -9.613281 C 4.164062 -9.898438 3.957031 -10.078125 3.632812 -10.148438 C 3.40625 -10.175781 3.136719 -10.125 2.820312 -9.992188 C 2.484375 -9.859375 2.089844 -9.605469 1.652344 -9.253906 L 1.589844 -9.320312 C 1.933594 -8.921875 2.109375 -8.535156 2.152344 -8.1875 C 2.15625 -8.003906 2.128906 -7.796875 2.078125 -7.605469 C 2.011719 -7.394531 1.929688 -7.160156 1.828125 -6.925781 Z M 1.828125 -6.925781 "/></g></g></g><g fill="#a6a6a6" fill-opacity="1"><g transform="translate(45.349563, 31.987809)"><g><path d="M 1.828125 -6.925781 L -1.785156 0.21875 L 0.730469 -0.0898438 C 1.578125 -1.898438 2.285156 -3.390625 2.835938 -4.609375 C 3.390625 -5.824219 3.863281 -6.789062 4.273438 -7.523438 C 4.664062 -8.238281 5.027344 -8.765625 5.355469 -9.082031 C 5.691406 -9.382812 6.039062 -9.554688 6.421875 -9.585938 C 6.664062 -9.578125 6.839844 -9.507812 6.9375 -9.335938 C 7.03125 -9.160156 7.019531 -8.957031 6.867188 -8.695312 L 4.644531 -4.8125 C 4.519531 -4.613281 4.402344 -4.375 4.25 -4.117188 C 4.097656 -3.835938 3.984375 -3.566406 3.871094 -3.292969 C 3.738281 -2.996094 3.644531 -2.707031 3.585938 -2.421875 C 3.53125 -2.140625 3.523438 -1.878906 3.589844 -1.648438 C 3.640625 -1.394531 3.757812 -1.1875 3.964844 -1.027344 C 4.171875 -0.847656 4.480469 -0.738281 4.894531 -0.695312 C 5.15625 -0.65625 5.449219 -0.691406 5.734375 -0.765625 C 6.023438 -0.835938 6.265625 -0.960938 6.503906 -1.15625 C 6.738281 -1.332031 6.96875 -1.582031 7.210938 -1.871094 C 7.433594 -2.160156 7.671875 -2.484375 7.90625 -2.828125 C 8.125 -3.152344 8.328125 -3.472656 8.523438 -3.8125 C 8.707031 -4.128906 8.894531 -4.429688 9.042969 -4.707031 C 8.941406 -4.640625 8.824219 -4.53125 8.710938 -4.40625 C 8.648438 -4.324219 8.597656 -4.265625 8.53125 -4.199219 C 8.464844 -4.136719 8.398438 -4.074219 8.351562 -4.011719 C 8.21875 -3.882812 8.085938 -3.757812 7.949219 -3.664062 C 7.8125 -3.574219 7.671875 -3.519531 7.527344 -3.503906 C 7.308594 -3.476562 7.183594 -3.570312 7.175781 -3.8125 C 7.148438 -4.011719 7.207031 -4.296875 7.34375 -4.683594 C 7.46875 -5.03125 7.640625 -5.421875 7.84375 -5.875 C 8.050781 -6.304688 8.257812 -6.738281 8.460938 -7.171875 C 8.652344 -7.582031 8.828125 -7.957031 8.96875 -8.308594 C 9.113281 -8.640625 9.191406 -8.890625 9.210938 -9.058594 C 9.207031 -9.390625 9.175781 -9.648438 9.074219 -9.855469 C 8.972656 -10.066406 8.859375 -10.238281 8.695312 -10.367188 C 8.332031 -10.617188 7.949219 -10.734375 7.539062 -10.742188 C 7.132812 -10.746094 6.71875 -10.660156 6.332031 -10.460938 C 5.933594 -10.265625 5.558594 -9.996094 5.195312 -9.636719 C 4.835938 -9.257812 4.535156 -8.851562 4.257812 -8.375 C 4.34375 -8.902344 4.347656 -9.3125 4.253906 -9.613281 C 4.164062 -9.898438 3.957031 -10.078125 3.632812 -10.148438 C 3.40625 -10.175781 3.136719 -10.125 2.820312 -9.992188 C 2.484375 -9.859375 2.089844 -9.605469 1.652344 -9.253906 L 1.589844 -9.320312 C 1.933594 -8.921875 2.109375 -8.535156 2.152344 -8.1875 C 2.15625 -8.003906 2.128906 -7.796875 2.078125 -7.605469 C 2.011719 -7.394531 1.929688 -7.160156 1.828125 -6.925781 Z M 1.828125 -6.925781 "/></g></g></g><g fill="#a6a6a6" fill-opacity="1"><g transform="translate(53.8987, 30.931918)"><g><path d="M 1.246094 -0.246094 C 1.699219 -0.191406 2.136719 -0.246094 2.578125 -0.410156 C 3.019531 -0.578125 3.457031 -0.796875 3.878906 -1.109375 C 4.289062 -1.398438 4.671875 -1.742188 5.050781 -2.121094 C 5.429688 -2.503906 5.785156 -2.917969 6.101562 -3.363281 C 6.398438 -3.789062 6.679688 -4.230469 6.9375 -4.671875 C 7.179688 -5.105469 7.390625 -5.503906 7.5625 -5.894531 C 6.839844 -4.878906 6.152344 -4.148438 5.539062 -3.703125 C 4.929688 -3.253906 4.398438 -3.042969 3.972656 -3.0625 C 3.527344 -3.0625 3.242188 -3.289062 3.074219 -3.75 C 2.90625 -4.191406 2.921875 -4.820312 3.117188 -5.625 C 3.167969 -5.816406 3.21875 -6.007812 3.269531 -6.199219 C 3.324219 -6.371094 3.394531 -6.546875 3.464844 -6.722656 C 3.4375 -6.347656 3.523438 -6.097656 3.703125 -5.972656 C 3.867188 -5.84375 4.097656 -5.78125 4.371094 -5.816406 L 4.324219 -5.753906 C 4.839844 -5.78125 5.332031 -5.988281 5.765625 -6.359375 C 6.207031 -6.707031 6.539062 -7.136719 6.8125 -7.632812 C 6.917969 -7.832031 7.015625 -8.105469 7.121094 -8.449219 C 7.222656 -8.796875 7.277344 -9.117188 7.273438 -9.449219 C 7.273438 -9.765625 7.183594 -10.03125 7.042969 -10.253906 C 6.890625 -10.457031 6.617188 -10.554688 6.25 -10.546875 C 5.628906 -10.488281 5.023438 -10.28125 4.472656 -9.957031 C 3.917969 -9.628906 3.394531 -9.230469 2.933594 -8.765625 C 2.457031 -8.28125 2.039062 -7.765625 1.664062 -7.21875 C 1.289062 -6.65625 1 -6.140625 0.761719 -5.664062 C 0.417969 -4.992188 0.148438 -4.332031 -0.0273438 -3.679688 C -0.226562 -3.027344 -0.285156 -2.445312 -0.203125 -1.9375 C -0.128906 -1.355469 0.0507812 -0.933594 0.304688 -0.667969 C 0.5625 -0.402344 0.875 -0.273438 1.246094 -0.246094 Z M 4.148438 -6.714844 C 3.914062 -6.683594 3.769531 -6.796875 3.722656 -7.011719 C 3.660156 -7.226562 3.773438 -7.519531 4.039062 -7.921875 C 4.390625 -8.5 4.765625 -8.917969 5.160156 -9.171875 C 5.539062 -9.402344 5.871094 -9.554688 6.140625 -9.625 L 6.160156 -9.625 C 6.558594 -9.675781 6.726562 -9.53125 6.660156 -9.171875 C 6.609375 -8.980469 6.523438 -8.785156 6.402344 -8.566406 C 6.28125 -8.347656 6.121094 -8.125 5.964844 -7.917969 C 5.644531 -7.507812 5.308594 -7.207031 4.980469 -7.019531 C 4.636719 -6.8125 4.375 -6.703125 4.148438 -6.714844 Z M 4.148438 -6.714844 "/></g></g></g><g fill="#a6a6a6" fill-opacity="1"><g transform="translate(60.515558, 30.11468)"><g><path d="M 2.0625 -6.992188 L -1.554688 0.136719 L 0.960938 -0.175781 L 3.902344 -6.480469 C 4.105469 -6.910156 4.40625 -7.335938 4.777344 -7.773438 C 4.875 -7.875 5.007812 -8.023438 5.1875 -8.210938 C 5.371094 -8.382812 5.566406 -8.574219 5.804688 -8.75 C 6.023438 -8.925781 6.246094 -9.0625 6.472656 -9.203125 C 6.695312 -9.339844 6.90625 -9.421875 7.125 -9.449219 C 7.328125 -9.457031 7.503906 -9.386719 7.628906 -9.253906 C 7.761719 -9.101562 7.847656 -8.855469 7.890625 -8.488281 C 7.914062 -8.308594 7.859375 -8.152344 7.75 -7.992188 C 7.640625 -7.828125 7.503906 -7.71875 7.332031 -7.625 C 7.160156 -7.527344 6.964844 -7.449219 6.746094 -7.421875 C 6.527344 -7.394531 6.320312 -7.425781 6.125 -7.511719 C 6.050781 -7.207031 6.027344 -6.964844 6.046875 -6.78125 C 6.070312 -6.597656 6.144531 -6.441406 6.25 -6.34375 C 6.339844 -6.226562 6.460938 -6.148438 6.59375 -6.109375 C 6.726562 -6.070312 6.859375 -6.046875 7.007812 -6.066406 C 7.339844 -6.070312 7.625 -6.160156 7.894531 -6.378906 C 8.144531 -6.597656 8.351562 -6.863281 8.53125 -7.199219 C 8.695312 -7.515625 8.820312 -7.863281 8.882812 -8.242188 C 8.949219 -8.621094 8.960938 -8.972656 8.917969 -9.320312 C 8.859375 -9.644531 8.75 -9.945312 8.585938 -10.203125 C 8.40625 -10.460938 8.164062 -10.632812 7.859375 -10.707031 C 7.554688 -10.761719 7.226562 -10.722656 6.910156 -10.589844 C 6.597656 -10.441406 6.285156 -10.273438 5.996094 -10.050781 C 5.691406 -9.808594 5.410156 -9.554688 5.144531 -9.296875 C 4.882812 -9.023438 4.671875 -8.796875 4.488281 -8.605469 C 4.53125 -9.035156 4.484375 -9.402344 4.375 -9.703125 C 4.265625 -9.984375 4.058594 -10.164062 3.773438 -10.21875 C 3.546875 -10.25 3.277344 -10.195312 2.957031 -10.066406 C 2.640625 -9.933594 2.261719 -9.699219 1.839844 -9.371094 C 2.015625 -9.152344 2.132812 -8.964844 2.226562 -8.789062 C 2.324219 -8.617188 2.363281 -8.4375 2.386719 -8.253906 C 2.390625 -8.070312 2.359375 -7.863281 2.308594 -7.671875 C 2.242188 -7.457031 2.160156 -7.226562 2.0625 -6.992188 Z M 1.820312 -9.386719 L 1.789062 -9.328125 L 1.839844 -9.371094 Z M 1.820312 -9.386719 "/></g></g></g><g fill="#737373" fill-opacity="1"><g transform="translate(8.553721, 36.285619)"><g><path d="M 18.792969 -18.832031 C 18.039062 -19.238281 17.0625 -19.507812 15.898438 -19.660156 C 14.714844 -19.789062 13.292969 -19.746094 11.621094 -19.5 L 11.605469 -19.480469 C 10.460938 -19.300781 9.53125 -19.058594 8.832031 -18.710938 C 8.132812 -18.367188 7.585938 -18.003906 7.210938 -17.585938 C 6.820312 -17.167969 6.597656 -16.714844 6.507812 -16.257812 C 6.414062 -15.804688 6.433594 -15.363281 6.554688 -14.96875 C 6.65625 -14.613281 6.824219 -14.28125 7.046875 -13.992188 C 7.265625 -13.707031 7.535156 -13.480469 7.832031 -13.3125 C 8.113281 -13.125 8.402344 -13.03125 8.71875 -13.035156 C 9.015625 -13.035156 9.316406 -13.125 9.605469 -13.347656 C 9.125 -13.953125 8.847656 -14.550781 8.8125 -15.117188 C 8.761719 -15.667969 8.886719 -16.183594 9.160156 -16.660156 C 9.417969 -17.117188 9.792969 -17.535156 10.300781 -17.894531 C 10.796875 -18.25 11.351562 -18.542969 11.953125 -18.765625 C 12.554688 -18.988281 13.148438 -19.132812 13.769531 -19.210938 C 14.371094 -19.285156 14.925781 -19.28125 15.4375 -19.195312 C 16.15625 -19.0625 16.707031 -18.777344 17.113281 -18.347656 C 17.5 -17.914062 17.769531 -17.390625 17.894531 -16.8125 C 18.011719 -16.164062 17.949219 -15.488281 17.695312 -14.828125 C 17.445312 -14.148438 17.078125 -13.53125 16.59375 -12.953125 C 16.175781 -12.457031 15.730469 -12.011719 15.238281 -11.65625 C 14.726562 -11.296875 14.242188 -11.03125 13.742188 -10.878906 C 13.277344 -10.726562 12.859375 -10.695312 12.460938 -10.757812 C 12.046875 -10.816406 11.726562 -11.019531 11.476562 -11.394531 C 11.65625 -11.730469 11.835938 -12.066406 12.019531 -12.386719 C 12.203125 -12.707031 12.402344 -13.027344 12.585938 -13.34375 C 13.074219 -14.183594 13.59375 -14.933594 14.101562 -15.605469 C 14.609375 -16.277344 15.136719 -16.824219 15.660156 -17.222656 C 15.179688 -17.070312 14.695312 -16.808594 14.222656 -16.417969 C 13.753906 -16.023438 13.273438 -15.578125 12.800781 -15.039062 C 12.3125 -14.496094 11.8125 -13.898438 11.339844 -13.246094 C 10.863281 -12.597656 10.386719 -11.964844 9.914062 -11.3125 C 9.417969 -10.660156 8.941406 -10.027344 8.460938 -9.410156 C 7.984375 -8.796875 7.492188 -8.273438 7.03125 -7.808594 C 6.554688 -7.324219 6.085938 -6.933594 5.621094 -6.652344 C 5.136719 -6.371094 4.671875 -6.222656 4.207031 -6.238281 C 3.804688 -6.226562 3.492188 -6.355469 3.242188 -6.582031 C 2.992188 -6.8125 2.789062 -7.101562 2.652344 -7.453125 C 2.5 -7.785156 2.398438 -8.164062 2.347656 -8.5625 C 2.296875 -8.964844 2.273438 -9.332031 2.300781 -9.707031 C 1.855469 -9.390625 1.453125 -9.0625 1.09375 -8.6875 C 0.730469 -8.308594 0.410156 -7.917969 0.132812 -7.476562 C -0.164062 -7.03125 -0.402344 -6.558594 -0.5625 -6.058594 C -0.742188 -5.554688 -0.847656 -5.058594 -0.855469 -4.539062 C -0.894531 -3.941406 -0.804688 -3.378906 -0.628906 -2.847656 C -0.453125 -2.3125 -0.15625 -1.851562 0.222656 -1.488281 C 0.585938 -1.109375 1.042969 -0.832031 1.585938 -0.640625 C 2.128906 -0.449219 2.761719 -0.414062 3.492188 -0.503906 C 4.003906 -0.566406 4.507812 -0.816406 5.046875 -1.253906 C 5.550781 -1.667969 6.058594 -2.210938 6.566406 -2.882812 C 7.074219 -3.558594 7.574219 -4.324219 8.074219 -5.199219 C 8.5625 -6.054688 9.0625 -6.949219 9.5625 -7.863281 C 10.058594 -8.777344 10.570312 -9.726562 11.082031 -10.679688 C 11.144531 -10.761719 11.1875 -10.878906 11.246094 -10.996094 C 11.242188 -10.585938 11.339844 -10.25 11.542969 -9.957031 C 11.746094 -9.652344 12.015625 -9.425781 12.332031 -9.242188 C 12.734375 -8.996094 13.179688 -8.847656 13.703125 -8.800781 C 14.226562 -8.753906 14.738281 -8.796875 15.234375 -8.972656 C 15.984375 -9.210938 16.6875 -9.519531 17.304688 -9.910156 C 17.925781 -10.285156 18.480469 -10.722656 18.976562 -11.210938 C 19.605469 -11.804688 20.078125 -12.476562 20.417969 -13.183594 C 20.738281 -13.890625 20.90625 -14.613281 20.929688 -15.320312 C 20.9375 -16.023438 20.765625 -16.667969 20.425781 -17.292969 C 20.09375 -17.898438 19.550781 -18.40625 18.792969 -18.832031 Z M 18.792969 -18.832031 "/></g></g></g><g fill="#737373" fill-opacity="1"><g transform="translate(23.683549, 34.416957)"><g><path d="M -0.0664062 -0.101562 C 0.308594 -0.0390625 0.746094 -0.09375 1.246094 -0.265625 C 1.742188 -0.4375 2.242188 -0.722656 2.75 -1.117188 C 3.257812 -1.511719 3.730469 -2.015625 4.191406 -2.628906 C 4.632812 -3.238281 5.027344 -3.953125 5.335938 -4.769531 C 5.222656 -4.625 5.109375 -4.480469 4.996094 -4.355469 C 4.882812 -4.230469 4.769531 -4.105469 4.652344 -4 C 4.386719 -3.742188 4.117188 -3.527344 3.84375 -3.34375 C 3.570312 -3.160156 3.328125 -3.019531 3.082031 -2.917969 C 2.820312 -2.792969 2.585938 -2.726562 2.382812 -2.738281 C 2.179688 -2.730469 2.058594 -2.808594 2.003906 -2.949219 C 1.933594 -3.089844 1.910156 -3.253906 1.957031 -3.480469 C 2.007812 -3.691406 2.085938 -3.941406 2.199219 -4.214844 C 2.316406 -4.46875 2.433594 -4.722656 2.550781 -4.980469 C 2.667969 -5.214844 2.804688 -5.457031 2.929688 -5.65625 C 3.050781 -5.855469 3.144531 -6.015625 3.1875 -6.113281 L 3.171875 -6.09375 L 5.378906 -10.253906 C 5.496094 -10.359375 5.628906 -10.46875 5.78125 -10.597656 C 5.929688 -10.726562 6.082031 -10.859375 6.246094 -11.007812 C 6.398438 -11.136719 6.550781 -11.265625 6.714844 -11.417969 C 6.882812 -11.550781 7.050781 -11.699219 7.234375 -11.871094 C 7.566406 -12.171875 7.914062 -12.492188 8.246094 -12.828125 C 8.574219 -13.164062 8.898438 -13.539062 9.199219 -13.925781 C 9.503906 -14.316406 9.769531 -14.699219 10.019531 -15.101562 C 10.246094 -15.5 10.40625 -15.871094 10.507812 -16.234375 C 10.59375 -16.578125 10.609375 -16.914062 10.554688 -17.203125 C 10.480469 -17.492188 10.320312 -17.75 10.035156 -17.972656 C 9.832031 -18.09375 9.597656 -18.195312 9.335938 -18.238281 C 9.070312 -18.277344 8.777344 -18.261719 8.472656 -18.1875 C 8.148438 -18.089844 7.851562 -17.945312 7.546875 -17.71875 C 7.242188 -17.496094 6.980469 -17.207031 6.75 -16.84375 C 5.589844 -15 4.519531 -13.164062 3.523438 -11.335938 C 2.527344 -9.511719 1.515625 -7.648438 0.492188 -5.742188 L -0.0234375 -4.828125 C -0.113281 -4.652344 -0.199219 -4.472656 -0.292969 -4.3125 C -0.382812 -4.15625 -0.453125 -3.980469 -0.527344 -3.820312 C -0.707031 -3.464844 -0.851562 -3.132812 -0.957031 -2.789062 C -1.078125 -2.441406 -1.148438 -2.097656 -1.164062 -1.78125 C -1.210938 -1.257812 -1.125 -0.859375 -0.925781 -0.589844 C -0.722656 -0.316406 -0.445312 -0.148438 -0.0664062 -0.101562 Z M 5.433594 -11.148438 L 8.855469 -16.734375 C 8.945312 -16.894531 9.078125 -17.003906 9.222656 -17.058594 C 9.363281 -17.09375 9.476562 -17.089844 9.59375 -17.03125 C 9.675781 -16.964844 9.761719 -16.863281 9.816406 -16.722656 C 9.871094 -16.582031 9.875 -16.398438 9.847656 -16.171875 C 9.804688 -15.945312 9.6875 -15.671875 9.539062 -15.375 C 9.394531 -15.0625 9.160156 -14.71875 8.851562 -14.347656 C 8.597656 -14.019531 8.300781 -13.703125 7.992188 -13.371094 C 7.664062 -13.035156 7.351562 -12.71875 7.035156 -12.417969 C 6.703125 -12.117188 6.402344 -11.839844 6.117188 -11.621094 C 5.828125 -11.398438 5.609375 -11.242188 5.433594 -11.148438 Z M 5.433594 -11.148438 "/></g></g></g><g fill="#737373" fill-opacity="1"><g transform="translate(27.784797, 33.910418)"><g><path d="M 5.796875 -0.882812 L 5.730469 -0.820312 C 6.238281 -0.882812 6.730469 -1.089844 7.222656 -1.464844 C 7.699219 -1.820312 8.160156 -2.265625 8.578125 -2.78125 C 8.980469 -3.273438 9.339844 -3.820312 9.675781 -4.378906 C 10.015625 -4.9375 10.28125 -5.472656 10.484375 -5.941406 C 10.453125 -5.898438 10.417969 -5.878906 10.367188 -5.832031 C 10.316406 -5.789062 10.269531 -5.730469 10.203125 -5.664062 C 10.054688 -5.5 9.890625 -5.332031 9.710938 -5.160156 C 9.53125 -4.972656 9.332031 -4.78125 9.113281 -4.585938 C 8.652344 -4.140625 8.265625 -3.816406 7.917969 -3.625 C 7.746094 -3.511719 7.605469 -3.476562 7.507812 -3.5 C 7.414062 -3.527344 7.382812 -3.632812 7.414062 -3.820312 C 7.425781 -4.007812 7.554688 -4.320312 7.765625 -4.714844 L 11.066406 -11.101562 L 8.496094 -10.785156 L 7.535156 -8.964844 C 7.492188 -9.328125 7.402344 -9.613281 7.242188 -9.851562 C 7.085938 -10.074219 6.898438 -10.238281 6.660156 -10.355469 C 6.410156 -10.453125 6.125 -10.492188 5.832031 -10.492188 C 5.535156 -10.476562 5.210938 -10.398438 4.894531 -10.285156 C 4.648438 -10.179688 4.367188 -10.035156 4.082031 -9.816406 C 3.792969 -9.59375 3.507812 -9.355469 3.210938 -9.058594 C 2.914062 -8.761719 2.605469 -8.429688 2.300781 -8.058594 C 1.992188 -7.6875 1.707031 -7.320312 1.421875 -6.914062 C 1.074219 -6.425781 0.765625 -5.945312 0.492188 -5.449219 C 0.207031 -4.929688 -0.03125 -4.4375 -0.230469 -3.953125 C -0.371094 -3.601562 -0.488281 -3.199219 -0.542969 -2.746094 C -0.597656 -2.296875 -0.601562 -1.886719 -0.519531 -1.507812 C -0.453125 -1.109375 -0.300781 -0.796875 -0.0859375 -0.542969 C 0.128906 -0.292969 0.457031 -0.1875 0.914062 -0.242188 C 1.535156 -0.320312 2.175781 -0.527344 2.792969 -0.902344 C 3.089844 -1.066406 3.359375 -1.265625 3.613281 -1.484375 C 3.863281 -1.699219 4.074219 -1.945312 4.226562 -2.207031 C 4.242188 -1.78125 4.394531 -1.449219 4.683594 -1.1875 C 4.957031 -0.925781 5.320312 -0.824219 5.796875 -0.882812 Z M 2.464844 -2.820312 C 2.289062 -2.894531 2.164062 -3.023438 2.082031 -3.238281 C 2 -3.449219 2 -3.726562 2.066406 -4.085938 C 2.117188 -4.425781 2.253906 -4.832031 2.488281 -5.34375 C 2.722656 -5.832031 3.058594 -6.410156 3.496094 -7.078125 C 3.679688 -7.359375 3.867188 -7.640625 4.09375 -7.929688 C 4.296875 -8.210938 4.527344 -8.460938 4.753906 -8.714844 C 4.964844 -8.941406 5.203125 -9.136719 5.460938 -9.28125 C 5.703125 -9.421875 5.972656 -9.492188 6.265625 -9.527344 C 6.429688 -9.53125 6.566406 -9.492188 6.667969 -9.410156 C 6.753906 -9.3125 6.824219 -9.191406 6.878906 -9.03125 C 6.917969 -8.871094 6.941406 -8.6875 6.933594 -8.464844 C 6.921875 -8.242188 6.914062 -8.015625 6.871094 -7.769531 L 6.886719 -7.773438 L 5.316406 -4.914062 C 5.199219 -4.675781 5.027344 -4.414062 4.839844 -4.132812 C 4.632812 -3.847656 4.40625 -3.578125 4.160156 -3.34375 C 3.894531 -3.089844 3.621094 -2.910156 3.335938 -2.800781 C 3.039062 -2.671875 2.742188 -2.671875 2.464844 -2.820312 Z M 2.464844 -2.820312 "/></g></g></g><g fill="#737373" fill-opacity="1"><g transform="translate(37.208931, 32.746458)"><g><path d="M 1.828125 -6.925781 L -1.785156 0.21875 L 0.730469 -0.0898438 C 1.578125 -1.898438 2.285156 -3.390625 2.835938 -4.609375 C 3.390625 -5.824219 3.863281 -6.789062 4.273438 -7.523438 C 4.664062 -8.238281 5.027344 -8.765625 5.355469 -9.082031 C 5.691406 -9.382812 6.039062 -9.554688 6.421875 -9.585938 C 6.664062 -9.578125 6.839844 -9.507812 6.9375 -9.335938 C 7.03125 -9.160156 7.019531 -8.957031 6.867188 -8.695312 L 4.644531 -4.8125 C 4.519531 -4.613281 4.402344 -4.375 4.25 -4.117188 C 4.097656 -3.835938 3.984375 -3.566406 3.871094 -3.292969 C 3.738281 -2.996094 3.644531 -2.707031 3.585938 -2.421875 C 3.53125 -2.140625 3.523438 -1.878906 3.589844 -1.648438 C 3.640625 -1.394531 3.757812 -1.1875 3.964844 -1.027344 C 4.171875 -0.847656 4.480469 -0.738281 4.894531 -0.695312 C 5.15625 -0.65625 5.449219 -0.691406 5.734375 -0.765625 C 6.023438 -0.835938 6.265625 -0.960938 6.503906 -1.15625 C 6.738281 -1.332031 6.96875 -1.582031 7.210938 -1.871094 C 7.433594 -2.160156 7.671875 -2.484375 7.90625 -2.828125 C 8.125 -3.152344 8.328125 -3.472656 8.523438 -3.8125 C 8.707031 -4.128906 8.894531 -4.429688 9.042969 -4.707031 C 8.941406 -4.640625 8.824219 -4.53125 8.710938 -4.40625 C 8.648438 -4.324219 8.597656 -4.265625 8.53125 -4.199219 C 8.464844 -4.136719 8.398438 -4.074219 8.351562 -4.011719 C 8.21875 -3.882812 8.085938 -3.757812 7.949219 -3.664062 C 7.8125 -3.574219 7.671875 -3.519531 7.527344 -3.503906 C 7.308594 -3.476562 7.183594 -3.570312 7.175781 -3.8125 C 7.148438 -4.011719 7.207031 -4.296875 7.34375 -4.683594 C 7.46875 -5.03125 7.640625 -5.421875 7.84375 -5.875 C 8.050781 -6.304688 8.257812 -6.738281 8.460938 -7.171875 C 8.652344 -7.582031 8.828125 -7.957031 8.96875 -8.308594 C 9.113281 -8.640625 9.191406 -8.890625 9.210938 -9.058594 C 9.207031 -9.390625 9.175781 -9.648438 9.074219 -9.855469 C 8.972656 -10.066406 8.859375 -10.238281 8.695312 -10.367188 C 8.332031 -10.617188 7.949219 -10.734375 7.539062 -10.742188 C 7.132812 -10.746094 6.71875 -10.660156 6.332031 -10.460938 C 5.933594 -10.265625 5.558594 -9.996094 5.195312 -9.636719 C 4.835938 -9.257812 4.535156 -8.851562 4.257812 -8.375 C 4.34375 -8.902344 4.347656 -9.3125 4.253906 -9.613281 C 4.164062 -9.898438 3.957031 -10.078125 3.632812 -10.148438 C 3.40625 -10.175781 3.136719 -10.125 2.820312 -9.992188 C 2.484375 -9.859375 2.089844 -9.605469 1.652344 -9.253906 L 1.589844 -9.320312 C 1.933594 -8.921875 2.109375 -8.535156 2.152344 -8.1875 C 2.15625 -8.003906 2.128906 -7.796875 2.078125 -7.605469 C 2.011719 -7.394531 1.929688 -7.160156 1.828125 -6.925781 Z M 1.828125 -6.925781 "/></g></g></g><g fill="#737373" fill-opacity="1"><g transform="translate(45.758068, 31.690567)"><g><path d="M 1.828125 -6.925781 L -1.785156 0.21875 L 0.730469 -0.0898438 C 1.578125 -1.898438 2.285156 -3.390625 2.835938 -4.609375 C 3.390625 -5.824219 3.863281 -6.789062 4.273438 -7.523438 C 4.664062 -8.238281 5.027344 -8.765625 5.355469 -9.082031 C 5.691406 -9.382812 6.039062 -9.554688 6.421875 -9.585938 C 6.664062 -9.578125 6.839844 -9.507812 6.9375 -9.335938 C 7.03125 -9.160156 7.019531 -8.957031 6.867188 -8.695312 L 4.644531 -4.8125 C 4.519531 -4.613281 4.402344 -4.375 4.25 -4.117188 C 4.097656 -3.835938 3.984375 -3.566406 3.871094 -3.292969 C 3.738281 -2.996094 3.644531 -2.707031 3.585938 -2.421875 C 3.53125 -2.140625 3.523438 -1.878906 3.589844 -1.648438 C 3.640625 -1.394531 3.757812 -1.1875 3.964844 -1.027344 C 4.171875 -0.847656 4.480469 -0.738281 4.894531 -0.695312 C 5.15625 -0.65625 5.449219 -0.691406 5.734375 -0.765625 C 6.023438 -0.835938 6.265625 -0.960938 6.503906 -1.15625 C 6.738281 -1.332031 6.96875 -1.582031 7.210938 -1.871094 C 7.433594 -2.160156 7.671875 -2.484375 7.90625 -2.828125 C 8.125 -3.152344 8.328125 -3.472656 8.523438 -3.8125 C 8.707031 -4.128906 8.894531 -4.429688 9.042969 -4.707031 C 8.941406 -4.640625 8.824219 -4.53125 8.710938 -4.40625 C 8.648438 -4.324219 8.597656 -4.265625 8.53125 -4.199219 C 8.464844 -4.136719 8.398438 -4.074219 8.351562 -4.011719 C 8.21875 -3.882812 8.085938 -3.757812 7.949219 -3.664062 C 7.8125 -3.574219 7.671875 -3.519531 7.527344 -3.503906 C 7.308594 -3.476562 7.183594 -3.570312 7.175781 -3.8125 C 7.148438 -4.011719 7.207031 -4.296875 7.34375 -4.683594 C 7.46875 -5.03125 7.640625 -5.421875 7.84375 -5.875 C 8.050781 -6.304688 8.257812 -6.738281 8.460938 -7.171875 C 8.652344 -7.582031 8.828125 -7.957031 8.96875 -8.308594 C 9.113281 -8.640625 9.191406 -8.890625 9.210938 -9.058594 C 9.207031 -9.390625 9.175781 -9.648438 9.074219 -9.855469 C 8.972656 -10.066406 8.859375 -10.238281 8.695312 -10.367188 C 8.332031 -10.617188 7.949219 -10.734375 7.539062 -10.742188 C 7.132812 -10.746094 6.71875 -10.660156 6.332031 -10.460938 C 5.933594 -10.265625 5.558594 -9.996094 5.195312 -9.636719 C 4.835938 -9.257812 4.535156 -8.851562 4.257812 -8.375 C 4.34375 -8.902344 4.347656 -9.3125 4.253906 -9.613281 C 4.164062 -9.898438 3.957031 -10.078125 3.632812 -10.148438 C 3.40625 -10.175781 3.136719 -10.125 2.820312 -9.992188 C 2.484375 -9.859375 2.089844 -9.605469 1.652344 -9.253906 L 1.589844 -9.320312 C 1.933594 -8.921875 2.109375 -8.535156 2.152344 -8.1875 C 2.15625 -8.003906 2.128906 -7.796875 2.078125 -7.605469 C 2.011719 -7.394531 1.929688 -7.160156 1.828125 -6.925781 Z M 1.828125 -6.925781 "/></g></g></g><g fill="#737373" fill-opacity="1"><g transform="translate(54.307205, 30.634677)"><g><path d="M 1.246094 -0.246094 C 1.699219 -0.191406 2.136719 -0.246094 2.578125 -0.410156 C 3.019531 -0.578125 3.457031 -0.796875 3.878906 -1.109375 C 4.289062 -1.398438 4.671875 -1.742188 5.050781 -2.121094 C 5.429688 -2.503906 5.785156 -2.917969 6.101562 -3.363281 C 6.398438 -3.789062 6.679688 -4.230469 6.9375 -4.671875 C 7.179688 -5.105469 7.390625 -5.503906 7.5625 -5.894531 C 6.839844 -4.878906 6.152344 -4.148438 5.539062 -3.703125 C 4.929688 -3.253906 4.398438 -3.042969 3.972656 -3.0625 C 3.527344 -3.0625 3.242188 -3.289062 3.074219 -3.75 C 2.90625 -4.191406 2.921875 -4.820312 3.117188 -5.625 C 3.167969 -5.816406 3.21875 -6.007812 3.269531 -6.199219 C 3.324219 -6.371094 3.394531 -6.546875 3.464844 -6.722656 C 3.4375 -6.347656 3.523438 -6.097656 3.703125 -5.972656 C 3.867188 -5.84375 4.097656 -5.78125 4.371094 -5.816406 L 4.324219 -5.753906 C 4.839844 -5.78125 5.332031 -5.988281 5.765625 -6.359375 C 6.207031 -6.707031 6.539062 -7.136719 6.8125 -7.632812 C 6.917969 -7.832031 7.015625 -8.105469 7.121094 -8.449219 C 7.222656 -8.796875 7.277344 -9.117188 7.273438 -9.449219 C 7.273438 -9.765625 7.183594 -10.03125 7.042969 -10.253906 C 6.890625 -10.457031 6.617188 -10.554688 6.25 -10.546875 C 5.628906 -10.488281 5.023438 -10.28125 4.472656 -9.957031 C 3.917969 -9.628906 3.394531 -9.230469 2.933594 -8.765625 C 2.457031 -8.28125 2.039062 -7.765625 1.664062 -7.21875 C 1.289062 -6.65625 1 -6.140625 0.761719 -5.664062 C 0.417969 -4.992188 0.148438 -4.332031 -0.0273438 -3.679688 C -0.226562 -3.027344 -0.285156 -2.445312 -0.203125 -1.9375 C -0.128906 -1.355469 0.0507812 -0.933594 0.304688 -0.667969 C 0.5625 -0.402344 0.875 -0.273438 1.246094 -0.246094 Z M 4.148438 -6.714844 C 3.914062 -6.683594 3.769531 -6.796875 3.722656 -7.011719 C 3.660156 -7.226562 3.773438 -7.519531 4.039062 -7.921875 C 4.390625 -8.5 4.765625 -8.917969 5.160156 -9.171875 C 5.539062 -9.402344 5.871094 -9.554688 6.140625 -9.625 L 6.160156 -9.625 C 6.558594 -9.675781 6.726562 -9.53125 6.660156 -9.171875 C 6.609375 -8.980469 6.523438 -8.785156 6.402344 -8.566406 C 6.28125 -8.347656 6.121094 -8.125 5.964844 -7.917969 C 5.644531 -7.507812 5.308594 -7.207031 4.980469 -7.019531 C 4.636719 -6.8125 4.375 -6.703125 4.148438 -6.714844 Z M 4.148438 -6.714844 "/></g></g></g><g fill="#737373" fill-opacity="1"><g transform="translate(60.924063, 29.817439)"><g><path d="M 2.0625 -6.992188 L -1.554688 0.136719 L 0.960938 -0.175781 L 3.902344 -6.480469 C 4.105469 -6.910156 4.40625 -7.335938 4.777344 -7.773438 C 4.875 -7.875 5.007812 -8.023438 5.1875 -8.210938 C 5.371094 -8.382812 5.566406 -8.574219 5.804688 -8.75 C 6.023438 -8.925781 6.246094 -9.0625 6.472656 -9.203125 C 6.695312 -9.339844 6.90625 -9.421875 7.125 -9.449219 C 7.328125 -9.457031 7.503906 -9.386719 7.628906 -9.253906 C 7.761719 -9.101562 7.847656 -8.855469 7.890625 -8.488281 C 7.914062 -8.308594 7.859375 -8.152344 7.75 -7.992188 C 7.640625 -7.828125 7.503906 -7.71875 7.332031 -7.625 C 7.160156 -7.527344 6.964844 -7.449219 6.746094 -7.421875 C 6.527344 -7.394531 6.320312 -7.425781 6.125 -7.511719 C 6.050781 -7.207031 6.027344 -6.964844 6.046875 -6.78125 C 6.070312 -6.597656 6.144531 -6.441406 6.25 -6.34375 C 6.339844 -6.226562 6.460938 -6.148438 6.59375 -6.109375 C 6.726562 -6.070312 6.859375 -6.046875 7.007812 -6.066406 C 7.339844 -6.070312 7.625 -6.160156 7.894531 -6.378906 C 8.144531 -6.597656 8.351562 -6.863281 8.53125 -7.199219 C 8.695312 -7.515625 8.820312 -7.863281 8.882812 -8.242188 C 8.949219 -8.621094 8.960938 -8.972656 8.917969 -9.320312 C 8.859375 -9.644531 8.75 -9.945312 8.585938 -10.203125 C 8.40625 -10.460938 8.164062 -10.632812 7.859375 -10.707031 C 7.554688 -10.761719 7.226562 -10.722656 6.910156 -10.589844 C 6.597656 -10.441406 6.285156 -10.273438 5.996094 -10.050781 C 5.691406 -9.808594 5.410156 -9.554688 5.144531 -9.296875 C 4.882812 -9.023438 4.671875 -8.796875 4.488281 -8.605469 C 4.53125 -9.035156 4.484375 -9.402344 4.375 -9.703125 C 4.265625 -9.984375 4.058594 -10.164062 3.773438 -10.21875 C 3.546875 -10.25 3.277344 -10.195312 2.957031 -10.066406 C 2.640625 -9.933594 2.261719 -9.699219 1.839844 -9.371094 C 2.015625 -9.152344 2.132812 -8.964844 2.226562 -8.789062 C 2.324219 -8.617188 2.363281 -8.4375 2.386719 -8.253906 C 2.390625 -8.070312 2.359375 -7.863281 2.308594 -7.671875 C 2.242188 -7.457031 2.160156 -7.226562 2.0625 -6.992188 Z M 1.820312 -9.386719 L 1.789062 -9.328125 L 1.839844 -9.371094 Z M 1.820312 -9.386719 "/></g></g></g></svg>